<?xml version="1.0" encoding="UTF-8"?>
<svg width="8px" height="18px" viewBox="0 0 8 18" version="1.1" xmlns="http://www.w3.org/2000/svg" xmlns:xlink="http://www.w3.org/1999/xlink">
    <!-- Generator: Sketch 63.1 (92452) - https://sketch.com -->
    <title>icon-select-arrows</title>
    <desc>Created with Sketch.</desc>
    <g id="Screendesign" stroke="none" stroke-width="1" fill="none" fill-rule="evenodd">
        <g id="Desktop-HD" transform="translate(-931.000000, -536.000000)" fill="#00C853">
            <g id="icon-select-arrows" transform="translate(930.000000, 535.000000)">
                <path d="M6.05999788,1.69599661 L8.80468833,6.08750132 C9.17057624,6.67292199 8.99260979,7.44410997 8.40718912,7.80999788 C8.20852462,7.93416319 7.97896509,8 7.74469045,8 L2.25530955,8 C1.56495361,8 1.00530955,7.44035594 1.00530955,6.75 C1.00530955,6.51572535 1.07114636,6.28616583 1.19531167,6.08750132 L3.94000212,1.69599661 C4.30589003,1.11057594 5.07707801,0.932609488 5.66249868,1.2984974 C5.82346009,1.39909829 5.959397,1.53503519 6.05999788,1.69599661 Z" id="Triangle"></path>
                <path d="M6.05999788,13.6959966 L8.80468833,18.0875013 C9.17057624,18.672922 8.99260979,19.44411 8.40718912,19.8099979 C8.20852462,19.9341632 7.97896509,20 7.74469045,20 L2.25530955,20 C1.56495361,20 1.00530955,19.4403559 1.00530955,18.75 C1.00530955,18.5157254 1.07114636,18.2861658 1.19531167,18.0875013 L3.94000212,13.6959966 C4.30589003,13.1105759 5.07707801,12.9326095 5.66249868,13.2984974 C5.82346009,13.3990983 5.959397,13.5350352 6.05999788,13.6959966 Z" id="Triangle" transform="translate(5.000000, 16.000000) scale(1, -1) translate(-5.000000, -16.000000) "></path>
            </g>
        </g>
    </g>
</svg>