<?xml version="1.0" encoding="UTF-8" standalone="no"?>
<svg
   xmlns:dc="http://purl.org/dc/elements/1.1/"
   xmlns:cc="http://creativecommons.org/ns#"
   xmlns:rdf="http://www.w3.org/1999/02/22-rdf-syntax-ns#"
   xmlns:svg="http://www.w3.org/2000/svg"
   xmlns="http://www.w3.org/2000/svg"
   viewBox="0 0 816 1056"
   height="1056"
   width="816"
   xml:space="preserve"
   id="svg2"
   version="1.1"><metadata
     id="metadata8"><rdf:RDF><cc:Work
         rdf:about=""><dc:format>image/svg+xml</dc:format><dc:type
           rdf:resource="http://purl.org/dc/dcmitype/StillImage" /></cc:Work></rdf:RDF></metadata><defs
     id="defs6"><clipPath
       id="clipPath18"
       clipPathUnits="userSpaceOnUse"><path
         style="clip-rule:evenodd"
         id="path16"
         d="M 108.33333,795.83331 H 2437.5 V 2495.5379 H 108.33333 Z" /></clipPath><clipPath
       id="clipPath36"
       clipPathUnits="userSpaceOnUse"><path
         style="clip-rule:evenodd"
         id="path34"
         d="M 108.33333,957.56989 H 2437.5 V 2495.5379 H 108.33333 Z" /></clipPath><clipPath
       id="clipPath56"
       clipPathUnits="userSpaceOnUse"><path
         id="path54"
         d="M 108.33333,795.83331 H 2437.5 V 2495.8333 H 108.33333 Z" /></clipPath><clipPath
       id="clipPath62"
       clipPathUnits="userSpaceOnUse"><path
         id="path60"
         d="M 108.33333,795.83331 H 2440.2808 V 2495.5379 H 108.33333 Z" /></clipPath><clipPath
       id="clipPath68"
       clipPathUnits="userSpaceOnUse"><path
         id="path66"
         d="M 108.33333,957.56989 H 2440.2808 V 2495.5379 H 108.33333 Z" /></clipPath><clipPath
       id="clipPath74"
       clipPathUnits="userSpaceOnUse"><path
         id="path72"
         d="m 436.21753,1328.0938 v -52.9321 c 0,-1.6241 0.57419,-3.0105 1.72259,-4.1588 1.14838,-1.1483 2.53461,-1.7225 4.15873,-1.7225 h 282.3038 c 1.62408,0 3.01031,0.5742 4.15869,1.7225 1.14838,1.1483 1.7226,2.5347 1.72266,4.1588 v 52.9321 c -6e-5,1.6239 -0.57428,3.0101 -1.72266,4.1586 -1.14838,1.1484 -2.53461,1.7226 -4.15869,1.7227 h -282.3038 c -1.62412,-1e-4 -3.01035,-0.5743 -4.15876,-1.7227 -1.14837,-1.1485 -1.72256,-2.5347 -1.72256,-4.1586 z" /></clipPath><clipPath
       id="clipPath88"
       clipPathUnits="userSpaceOnUse"><path
         style="clip-rule:evenodd"
         id="path86"
         d="M 108.33333,957.56989 H 2437.5 V 2495.5379 H 108.33333 Z" /></clipPath><clipPath
       id="clipPath100"
       clipPathUnits="userSpaceOnUse"><path
         id="path98"
         d="M 108.33333,795.83331 H 2437.5 V 2495.8333 H 108.33333 Z" /></clipPath><clipPath
       id="clipPath106"
       clipPathUnits="userSpaceOnUse"><path
         id="path104"
         d="M 108.33333,795.83331 H 2440.2808 V 2495.5379 H 108.33333 Z" /></clipPath><clipPath
       id="clipPath112"
       clipPathUnits="userSpaceOnUse"><path
         id="path110"
         d="M 108.33333,957.56989 H 2440.2808 V 2495.5379 H 108.33333 Z" /></clipPath><clipPath
       id="clipPath118"
       clipPathUnits="userSpaceOnUse"><path
         id="path116"
         d="m 780.27533,1328.0938 v -52.9321 c -6e-5,-1.6241 0.57416,-3.0105 1.72253,-4.1588 1.14844,-1.1483 2.53473,-1.7225 4.15882,-1.7225 h 282.30392 c 1.624,0 3.0102,0.5742 4.1587,1.7225 1.1483,1.1483 1.7225,2.5347 1.7226,4.1588 v 52.9321 c -10e-5,1.6239 -0.5743,3.0101 -1.7226,4.1586 -1.1485,1.1484 -2.5347,1.7226 -4.1587,1.7227 H 786.15668 c -1.62409,-1e-4 -3.01038,-0.5743 -4.15882,-1.7227 -1.14837,-1.1485 -1.72259,-2.5347 -1.72253,-4.1586 z" /></clipPath><clipPath
       id="clipPath132"
       clipPathUnits="userSpaceOnUse"><path
         style="clip-rule:evenodd"
         id="path130"
         d="M 108.33333,957.56989 H 2437.5 V 2495.5379 H 108.33333 Z" /></clipPath><clipPath
       id="clipPath144"
       clipPathUnits="userSpaceOnUse"><path
         id="path142"
         d="M 108.33333,795.83331 H 2437.5 V 2495.8333 H 108.33333 Z" /></clipPath><clipPath
       id="clipPath150"
       clipPathUnits="userSpaceOnUse"><path
         id="path148"
         d="M 108.33333,795.83331 H 2440.2808 V 2495.5379 H 108.33333 Z" /></clipPath><clipPath
       id="clipPath156"
       clipPathUnits="userSpaceOnUse"><path
         id="path154"
         d="M 108.33333,957.56989 H 2440.2808 V 2495.5379 H 108.33333 Z" /></clipPath><clipPath
       id="clipPath162"
       clipPathUnits="userSpaceOnUse"><path
         id="path160"
         d="m 1124.3331,1328.0938 v -52.9321 c -10e-5,-1.6241 0.5741,-3.0105 1.7226,-4.1588 1.1484,-1.1483 2.5346,-1.7225 4.1588,-1.7225 h 282.3039 c 1.6241,0 3.0103,0.5742 4.1587,1.7225 1.1483,1.1483 1.7226,2.5347 1.7227,4.1588 v 52.9321 c -10e-5,1.6239 -0.5744,3.0101 -1.7227,4.1586 -1.1484,1.1484 -2.5346,1.7226 -4.1587,1.7227 h -282.3039 c -1.6242,-1e-4 -3.0104,-0.5743 -4.1588,-1.7227 -1.1485,-1.1485 -1.7227,-2.5347 -1.7226,-4.1586 z" /></clipPath><clipPath
       id="clipPath176"
       clipPathUnits="userSpaceOnUse"><path
         style="clip-rule:evenodd"
         id="path174"
         d="M 108.33333,957.56989 H 2437.5 V 2495.5379 H 108.33333 Z" /></clipPath><clipPath
       id="clipPath188"
       clipPathUnits="userSpaceOnUse"><path
         id="path186"
         d="M 108.33333,795.83331 H 2437.5 V 2495.8333 H 108.33333 Z" /></clipPath><clipPath
       id="clipPath194"
       clipPathUnits="userSpaceOnUse"><path
         id="path192"
         d="M 108.33333,795.83331 H 2440.2808 V 2495.5379 H 108.33333 Z" /></clipPath><clipPath
       id="clipPath200"
       clipPathUnits="userSpaceOnUse"><path
         id="path198"
         d="M 108.33333,957.56989 H 2440.2808 V 2495.5379 H 108.33333 Z" /></clipPath><clipPath
       id="clipPath206"
       clipPathUnits="userSpaceOnUse"><path
         id="path204"
         d="m 1468.391,1328.0938 v -52.9321 c -10e-5,-1.6241 0.5741,-3.0105 1.7225,-4.1588 1.1483,-1.1483 2.5347,-1.7225 4.1588,-1.7225 h 282.3039 c 1.624,0 3.0102,0.5742 4.1585,1.7225 1.1485,1.1483 1.7227,2.5347 1.7228,4.1588 v 52.9321 c -10e-5,1.6239 -0.5743,3.0101 -1.7228,4.1586 -1.1483,1.1484 -2.5345,1.7226 -4.1585,1.7227 h -282.3039 c -1.6241,-1e-4 -3.0105,-0.5743 -4.1588,-1.7227 -1.1484,-1.1485 -1.7226,-2.5347 -1.7225,-4.1586 z" /></clipPath><clipPath
       id="clipPath212"
       clipPathUnits="userSpaceOnUse"><path
         id="path210"
         d="m 1490.446,1288.3948 h 249.9566 v 26.4659 H 1490.446 Z" /></clipPath><clipPath
       id="clipPath226"
       clipPathUnits="userSpaceOnUse"><path
         style="clip-rule:evenodd"
         id="path224"
         d="m 1733.0509,1286.9244 h 13.233 v 29.4067 h -13.233 z" /></clipPath><clipPath
       id="clipPath242"
       clipPathUnits="userSpaceOnUse"><path
         style="clip-rule:evenodd"
         id="path240"
         d="M 108.33333,957.56989 H 2437.5 V 2495.5379 H 108.33333 Z" /></clipPath><clipPath
       id="clipPath276"
       clipPathUnits="userSpaceOnUse"><path
         id="path274"
         d="M 108.33333,795.83331 H 2437.5 V 2495.8333 H 108.33333 Z" /></clipPath><clipPath
       id="clipPath282"
       clipPathUnits="userSpaceOnUse"><path
         id="path280"
         d="M 108.33333,795.83331 H 2440.2808 V 2495.5379 H 108.33333 Z" /></clipPath><clipPath
       id="clipPath288"
       clipPathUnits="userSpaceOnUse"><path
         id="path286"
         d="M 108.33333,957.56989 H 2440.2808 V 2495.5379 H 108.33333 Z" /></clipPath><clipPath
       id="clipPath294"
       clipPathUnits="userSpaceOnUse"><path
         id="path292"
         d="m 436.21753,1801.5408 v -52.9319 c 0,-1.6242 0.57419,-3.0105 1.72259,-4.1588 1.14838,-1.1483 2.53461,-1.7226 4.15873,-1.7226 h 282.3038 c 1.62408,0 3.01031,0.5743 4.15869,1.7226 1.14838,1.1483 1.7226,2.5346 1.72266,4.1588 v 52.9319 c -6e-5,1.6239 -0.57428,3.0101 -1.72266,4.1587 -1.14838,1.1483 -2.53461,1.7225 -4.15869,1.7226 h -282.3038 c -1.62412,-10e-5 -3.01035,-0.5743 -4.15876,-1.7226 -1.14837,-1.1486 -1.72256,-2.5348 -1.72256,-4.1587 z" /></clipPath><clipPath
       id="clipPath300"
       clipPathUnits="userSpaceOnUse"><path
         id="path298"
         d="M 458.27252,1761.8418 H 708.229 v 26.4661 H 458.27252 Z" /></clipPath><clipPath
       id="clipPath314"
       clipPathUnits="userSpaceOnUse"><path
         style="clip-rule:evenodd"
         id="path312"
         d="m 700.87738,1760.3716 h 13.23297 v 29.4065 h -13.23297 z" /></clipPath><clipPath
       id="clipPath330"
       clipPathUnits="userSpaceOnUse"><path
         style="clip-rule:evenodd"
         id="path328"
         d="M 108.33333,957.56989 H 2437.5 V 2495.5379 H 108.33333 Z" /></clipPath><clipPath
       id="clipPath342"
       clipPathUnits="userSpaceOnUse"><path
         id="path340"
         d="M 108.33333,795.83331 H 2437.5 V 2495.8333 H 108.33333 Z" /></clipPath><clipPath
       id="clipPath348"
       clipPathUnits="userSpaceOnUse"><path
         id="path346"
         d="M 108.33333,795.83331 H 2440.2808 V 2495.5379 H 108.33333 Z" /></clipPath><clipPath
       id="clipPath354"
       clipPathUnits="userSpaceOnUse"><path
         id="path352"
         d="M 108.33333,957.56989 H 2440.2808 V 2495.5379 H 108.33333 Z" /></clipPath><clipPath
       id="clipPath360"
       clipPathUnits="userSpaceOnUse"><path
         id="path358"
         d="m 780.27533,1801.5408 v -52.9319 c -6e-5,-1.6242 0.57416,-3.0105 1.72253,-4.1588 1.14844,-1.1483 2.53473,-1.7226 4.15882,-1.7226 h 282.30392 c 1.624,0 3.0102,0.5743 4.1587,1.7226 1.1483,1.1483 1.7225,2.5346 1.7226,4.1588 v 52.9319 c -10e-5,1.6239 -0.5743,3.0101 -1.7226,4.1587 -1.1485,1.1483 -2.5347,1.7225 -4.1587,1.7226 H 786.15668 c -1.62409,-10e-5 -3.01038,-0.5743 -4.15882,-1.7226 -1.14837,-1.1486 -1.72259,-2.5348 -1.72253,-4.1587 z" /></clipPath><clipPath
       id="clipPath374"
       clipPathUnits="userSpaceOnUse"><path
         style="clip-rule:evenodd"
         id="path372"
         d="M 108.33333,957.56989 H 2437.5 V 2495.5379 H 108.33333 Z" /></clipPath><clipPath
       id="clipPath386"
       clipPathUnits="userSpaceOnUse"><path
         id="path384"
         d="M 108.33333,795.83331 H 2437.5 V 2495.8333 H 108.33333 Z" /></clipPath><clipPath
       id="clipPath392"
       clipPathUnits="userSpaceOnUse"><path
         id="path390"
         d="M 108.33333,795.83331 H 2440.2808 V 2495.5379 H 108.33333 Z" /></clipPath><clipPath
       id="clipPath398"
       clipPathUnits="userSpaceOnUse"><path
         id="path396"
         d="M 108.33333,957.56989 H 2440.2808 V 2495.5379 H 108.33333 Z" /></clipPath><clipPath
       id="clipPath404"
       clipPathUnits="userSpaceOnUse"><path
         id="path402"
         d="m 1124.3331,1801.5408 v -52.9319 c -10e-5,-1.6242 0.5741,-3.0105 1.7226,-4.1588 1.1484,-1.1483 2.5346,-1.7226 4.1588,-1.7226 h 282.3039 c 1.6241,0 3.0103,0.5743 4.1587,1.7226 1.1483,1.1483 1.7226,2.5346 1.7227,4.1588 v 52.9319 c -10e-5,1.6239 -0.5744,3.0101 -1.7227,4.1587 -1.1484,1.1483 -2.5346,1.7225 -4.1587,1.7226 h -282.3039 c -1.6242,-10e-5 -3.0104,-0.5743 -4.1588,-1.7226 -1.1485,-1.1486 -1.7227,-2.5348 -1.7226,-4.1587 z" /></clipPath><clipPath
       id="clipPath418"
       clipPathUnits="userSpaceOnUse"><path
         style="clip-rule:evenodd"
         id="path416"
         d="M 108.33333,957.56989 H 2437.5 V 2495.5379 H 108.33333 Z" /></clipPath></defs><g
     transform="matrix(0.31999998,0,0,0.31999998,0,2.64e-5)"
     id="g10"><g
       id="g12"><g
         clip-path="url(#clipPath18)"
         id="g14"><g
           transform="matrix(1.4703326,0,0,1.4703326,108.33333,795.83331)"
           id="g20"><path
             id="path22"
             style="fill:#ffffff;fill-opacity:1;fill-rule:nonzero;stroke:none"
             d="M 0,0 H 1586 V 1156 H 0 Z" /><path
             id="path24"
             style="fill:#ffffff;fill-opacity:1;fill-rule:nonzero;stroke:none"
             d="M 163,0 H 1423 V 110 H 163 Z" /><text
             id="text28"
             style="font-variant:normal;font-weight:normal;font-size:16px;font-family:Font;-inkscape-font-specification:Font;writing-mode:lr-tb;fill:#00c853;fill-opacity:1;fill-rule:nonzero;stroke:none"
             transform="translate(223,61)"><tspan
               id="tspan26"
               y="0"
               x="0 8 19 28 33 42 55 64 68 76 88 101 110">PATIENT PAGER</tspan></text>
</g></g></g><g
       id="g30"><g
         clip-path="url(#clipPath36)"
         id="g32"><g
           transform="matrix(1.4703326,0,0,1.4703326,108.33333,795.83331)"
           id="g38"><text
             id="text42"
             style="font-variant:normal;font-weight:normal;font-size:45px;font-family:Font;-inkscape-font-specification:Font;writing-mode:lr-tb;fill:#000000;fill-opacity:1;fill-rule:nonzero;stroke:none"
             transform="translate(223,190)"><tspan
               id="tspan40"
               y="0"
               x="0 43 55 67 79 103 130 170 210 237 264 274 286 313 323 351 378 390 417 444 484 494 522 534 562 574 593 621 633 660 687 696 737 765 783 802 829 846 874 900 940">Willkommen in deinem digitalen Warteraum.</tspan></text>
<text
             id="text46"
             style="font-variant:normal;font-weight:normal;font-size:16px;font-family:Font;-inkscape-font-specification:Font;writing-mode:lr-tb;fill:#191919;fill-opacity:1;fill-rule:nonzero;stroke:none"
             transform="translate(223,298)"><tspan
               id="tspan44"
               y="0"
               x="0 9 19 26 30 39 49 56 65 75 79 88 92 102 111 121 130 139 148 157">Patienten einchecken</tspan></text>
<path
             id="path48"
             style="fill:#e8f5e9;fill-opacity:1;fill-rule:nonzero;stroke:none"
             d="m 223,362 v -36 c -2e-5,-0.53049 0.10149,-1.04074 0.30447,-1.53079 0.20298,-0.49005 0.49201,-0.92261 0.86708,-1.29767 0.37508,-0.37509 0.80764,-0.66409 1.29769,-0.86707 C 225.9593,322.1015 226.46956,322 227,322 h 192 c 0.53043,0 1.04065,0.1015 1.53073,0.30447 0.49005,0.20298 0.92261,0.49198 1.2977,0.86707 0.37506,0.37506 0.66409,0.80762 0.86707,1.29767 0.20297,0.49005 0.30447,1.0003 0.3045,1.53079 v 36 c -3e-5,0.5304 -0.10153,1.04062 -0.30453,1.53067 -0.20298,0.49008 -0.49198,0.92264 -0.86704,1.29773 -0.37509,0.37503 -0.80765,0.66406 -1.2977,0.86707 -0.49008,0.203 -1.0003,0.3045 -1.53073,0.30453 H 227 c -0.53044,-3e-5 -1.04068,-0.10153 -1.53075,-0.30453 -0.49006,-0.20301 -0.92262,-0.49204 -1.2977,-0.86707 -0.37507,-0.37509 -0.6641,-0.80765 -0.86709,-1.2977 C 223.10147,363.04062 222.99998,362.5304 223,362 Z" /></g></g></g><g
       id="g50"><g
         clip-path="url(#clipPath56)"
         id="g52"><g
           clip-path="url(#clipPath62)"
           id="g58"><g
             clip-path="url(#clipPath68)"
             id="g64"><g
               clip-path="url(#clipPath74)"
               id="g70"><g
                 transform="matrix(1.4703326,0,0,1.4703326,108.33333,795.83331)"
                 id="g76"><text
                   id="text80"
                   style="font-variant:normal;font-weight:normal;font-size:14px;font-family:Font;-inkscape-font-specification:Font;writing-mode:lr-tb;fill:#959d95;fill-opacity:1;fill-rule:nonzero;stroke:none"
                   transform="translate(238,349)"><tspan
                     id="tspan78"
                     y="0"
                     x="0 9 17 22 30 39 51">Vorname</tspan></text>
</g></g></g></g></g></g><g
       id="g82"><g
         clip-path="url(#clipPath88)"
         id="g84"><g
           transform="matrix(1.4703326,0,0,1.4703326,108.33333,795.83331)"
           id="g90"><path
             id="path92"
             style="fill:#e8f5e9;fill-opacity:1;fill-rule:nonzero;stroke:none"
             d="m 457,362 v -36 c -3e-5,-0.53049 0.10147,-1.04074 0.30444,-1.53079 0.20298,-0.49005 0.49204,-0.92261 0.86713,-1.29767 0.37506,-0.37509 0.80762,-0.66409 1.29764,-0.86707 C 459.95929,322.1015 460.46954,322 461,322 h 192 c 0.53033,0 1.04059,0.1015 1.5307,0.30447 0.48999,0.20298 0.92255,0.49198 1.29767,0.86707 0.37506,0.37506 0.66406,0.80762 0.86713,1.29767 0.20294,0.49005 0.30444,1.0003 0.3045,1.53079 v 36 c -6e-5,0.5304 -0.10156,1.04062 -0.3045,1.53067 -0.20307,0.49008 -0.49207,0.92264 -0.86713,1.29773 -0.37512,0.37503 -0.80768,0.66406 -1.29767,0.86707 -0.49011,0.203 -1.00037,0.3045 -1.5307,0.30453 H 461 c -0.53046,-3e-5 -1.04071,-0.10153 -1.53079,-0.30453 -0.49002,-0.20301 -0.92258,-0.49204 -1.29764,-0.86707 -0.37509,-0.37509 -0.66415,-0.80765 -0.86713,-1.2977 C 457.10147,363.04062 456.99997,362.5304 457,362 Z" /></g></g></g><g
       id="g94"><g
         clip-path="url(#clipPath100)"
         id="g96"><g
           clip-path="url(#clipPath106)"
           id="g102"><g
             clip-path="url(#clipPath112)"
             id="g108"><g
               clip-path="url(#clipPath118)"
               id="g114"><g
                 transform="matrix(1.4703326,0,0,1.4703326,108.33333,795.83331)"
                 id="g120"><text
                   id="text124"
                   style="font-variant:normal;font-weight:normal;font-size:14px;font-family:Font;-inkscape-font-specification:Font;writing-mode:lr-tb;fill:#959d95;fill-opacity:1;fill-rule:nonzero;stroke:none"
                   transform="translate(472,349)"><tspan
                     id="tspan122"
                     y="0"
                     x="0 11 20 28 36 44 53 65">Nachname</tspan></text>
</g></g></g></g></g></g><g
       id="g126"><g
         clip-path="url(#clipPath132)"
         id="g128"><g
           transform="matrix(1.4703326,0,0,1.4703326,108.33333,795.83331)"
           id="g134"><path
             id="path136"
             style="fill:#e8f5e9;fill-opacity:1;fill-rule:nonzero;stroke:none"
             d="m 691,362 v -36 c -6e-5,-0.53049 0.10144,-1.04074 0.30444,-1.53079 0.20295,-0.49005 0.49201,-0.92261 0.86713,-1.29767 0.375,-0.37509 0.80756,-0.66409 1.29767,-0.86707 C 693.95929,322.1015 694.46954,322 695,322 h 192 c 0.53033,0 1.04059,0.1015 1.53064,0.30447 0.49005,0.20298 0.92261,0.49198 1.29773,0.86707 0.37506,0.37506 0.66406,0.80762 0.86706,1.29767 0.20301,0.49005 0.30451,1.0003 0.30457,1.53079 v 36 c -6e-5,0.5304 -0.10156,1.04062 -0.30457,1.53067 -0.203,0.49008 -0.492,0.92264 -0.86706,1.29773 -0.37512,0.37503 -0.80768,0.66406 -1.29773,0.86707 -0.49005,0.203 -1.00031,0.3045 -1.53064,0.30453 H 695 c -0.53046,-3e-5 -1.04071,-0.10153 -1.53076,-0.30453 -0.49011,-0.20301 -0.92267,-0.49204 -1.29767,-0.86707 -0.37512,-0.37509 -0.66418,-0.80765 -0.86713,-1.2977 -0.203,-0.49008 -0.3045,-1.0003 -0.30444,-1.5307 z" /></g></g></g><g
       id="g138"><g
         clip-path="url(#clipPath144)"
         id="g140"><g
           clip-path="url(#clipPath150)"
           id="g146"><g
             clip-path="url(#clipPath156)"
             id="g152"><g
               clip-path="url(#clipPath162)"
               id="g158"><g
                 transform="matrix(1.4703326,0,0,1.4703326,108.33333,795.83331)"
                 id="g164"><text
                   id="text168"
                   style="font-variant:normal;font-weight:normal;font-size:14px;font-family:Font;-inkscape-font-specification:Font;writing-mode:lr-tb;fill:#959d95;fill-opacity:1;fill-rule:nonzero;stroke:none"
                   transform="translate(706,349)"><tspan
                     id="tspan166"
                     y="0"
                     x="0 7 15 19 27 32 40 48 56 64 76 88 96">Telefonnummer</tspan></text>
</g></g></g></g></g></g><g
       id="g170"><g
         clip-path="url(#clipPath176)"
         id="g172"><g
           transform="matrix(1.4703326,0,0,1.4703326,108.33333,795.83331)"
           id="g178"><path
             id="path180"
             style="fill:#e8f5e9;fill-opacity:1;fill-rule:nonzero;stroke:none"
             d="m 925,362 v -36 c -6e-5,-0.53049 0.10144,-1.04074 0.30438,-1.53079 0.20294,-0.49005 0.49201,-0.92261 0.86713,-1.29767 0.37506,-0.37509 0.80762,-0.66409 1.29767,-0.86707 C 927.95923,322.1015 928.46948,322 929,322 h 192 c 0.5304,0 1.0405,0.1015 1.5305,0.30447 0.4901,0.20298 0.9228,0.49198 1.2979,0.86707 0.375,0.37506 0.6639,0.80762 0.8669,1.29767 0.203,0.49005 0.3046,1.0003 0.3047,1.53079 v 36 c -10e-5,0.5304 -0.1017,1.04062 -0.3047,1.53067 -0.203,0.49008 -0.4919,0.92264 -0.8669,1.29773 -0.3751,0.37503 -0.8078,0.66406 -1.2979,0.86707 -0.49,0.203 -1.0001,0.3045 -1.5305,0.30453 H 929 c -0.53052,-3e-5 -1.04077,-0.10153 -1.53082,-0.30453 -0.49005,-0.20301 -0.92261,-0.49204 -1.29767,-0.86707 -0.37512,-0.37509 -0.66419,-0.80765 -0.86713,-1.2977 C 925.10144,363.04062 924.99994,362.5304 925,362 Z" /></g></g></g><g
       id="g182"><g
         clip-path="url(#clipPath188)"
         id="g184"><g
           clip-path="url(#clipPath194)"
           id="g190"><g
             clip-path="url(#clipPath200)"
             id="g196"><g
               clip-path="url(#clipPath206)"
               id="g202"><g
                 clip-path="url(#clipPath212)"
                 id="g208"><g
                   transform="matrix(1.4703326,0,0,1.4703326,108.33333,795.83331)"
                   id="g214"><text
                     id="text218"
                     style="font-variant:normal;font-weight:normal;font-size:14px;font-family:Font;-inkscape-font-specification:Font;writing-mode:lr-tb;fill:#191919;fill-opacity:1;fill-rule:nonzero;stroke:none"
                     transform="translate(940,349)"><tspan
                       id="tspan216"
                       y="0"
                       x="0 9 17 25 34 42 51 59 63 71 80 88 93 96 106 111 118">Behandelnder Arzt</tspan></text>
</g></g></g></g></g></g></g><g
       id="g220"><g
         clip-path="url(#clipPath226)"
         id="g222"><g
           transform="matrix(1.633703,0,0,1.633703,1731.4989,1285.2908)"
           id="g228"><path
             id="path230"
             style="fill:#00c853;fill-opacity:1;fill-rule:evenodd;stroke:none"
             d="M 6.059998,1.6959966 8.8046885,6.0875015 C 9.1705761,6.6729221 8.99261,7.4441099 8.4071894,7.8099976 8.2085247,7.9341631 7.9789653,8 7.7446904,8 H 2.2553096 c -0.690356,0 -1.25,-0.5596442 -1.25,-1.25 0,-0.2342749 0.065837,-0.4638343 0.1900021,-0.6624985 L 3.9400022,1.6959966 C 4.3058901,1.1105759 5.0770779,0.9326095 5.6624985,1.2984974 5.8234601,1.3990983 5.9593968,1.5350351 6.059998,1.6959966 Z" /></g><g
           transform="matrix(1.633703,0,0,-1.633703,1731.4989,1337.5692)"
           id="g232"><path
             id="path234"
             style="fill:#00c853;fill-opacity:1;fill-rule:evenodd;stroke:none"
             d="m 6.059998,13.695996 2.7446905,4.391506 C 9.1705761,18.672922 8.99261,19.444111 8.4071894,19.809998 8.2085247,19.934164 7.9789653,20 7.7446904,20 H 2.2553096 c -0.690356,0 -1.25,-0.559645 -1.25,-1.25 0,-0.234274 0.065837,-0.463835 0.1900021,-0.662498 l 2.7446905,-4.391506 c 0.3658879,-0.58542 1.1370757,-0.763386 1.7224963,-0.397499 0.1609616,0.100601 0.2968983,0.236538 0.3974995,0.397499 z" /></g></g></g><g
       id="g236"><g
         clip-path="url(#clipPath242)"
         id="g238"><g
           transform="matrix(1.4703326,0,0,1.4703326,108.33333,795.83331)"
           id="g244"><path
             id="path246"
             style="fill:#e8f5e9;fill-opacity:1;fill-rule:nonzero;stroke:none"
             d="m 1199,344 c -10e-5,1.44455 -0.141,2.87518 -0.4228,4.29196 -0.2819,1.41678 -0.6991,2.79245 -1.252,4.12702 -0.5529,1.33456 -1.2306,2.60241 -2.0331,3.80355 -0.8025,1.20108 -1.7145,2.31235 -2.7358,3.33381 -1.0214,1.02142 -2.1327,1.93341 -3.3338,2.73593 -1.201,0.80255 -2.469,1.48022 -3.8035,2.03305 -1.3347,0.55282 -2.7103,0.97012 -4.127,1.25195 C 1179.8751,365.8591 1178.4445,366 1177,366 c -1.4446,0 -2.8752,-0.1409 -4.292,-0.42273 -1.4169,-0.28183 -2.7926,-0.69913 -4.1272,-1.25195 -1.3346,-0.55283 -2.6024,-1.2305 -3.8035,-2.03302 -1.2011,-0.80255 -2.3125,-1.71454 -3.3338,-2.73596 -1.0215,-1.02146 -1.9335,-2.13276 -2.7361,-3.33384 -0.8026,-1.20111 -1.4802,-2.46896 -2.033,-3.80352 -0.5527,-1.33457 -0.9699,-2.71024 -1.2518,-4.12702 -0.2818,-1.41678 -0.4227,-2.84741 -0.4226,-4.29196 -10e-5,-1.44455 0.1408,-2.87521 0.4226,-4.29199 0.2819,-1.41678 0.6991,-2.79248 1.2518,-4.12711 0.5528,-1.33459 1.2304,-2.60241 2.033,-3.8035 0.8026,-1.20108 1.7146,-2.31234 2.7361,-3.3338 1.0213,-1.02145 2.1327,-1.93344 3.3338,-2.73599 1.2011,-0.80252 2.4689,-1.48019 3.8035,-2.03299 1.3346,-0.55279 2.7103,-0.97009 4.1272,-1.25192 1.4168,-0.2818 2.8474,-0.4227 4.292,-0.4227 1.4445,0 2.8751,0.1409 4.292,0.4227 1.4167,0.28183 2.7923,0.69913 4.127,1.25192 1.3345,0.5528 2.6025,1.23047 3.8035,2.03299 1.2011,0.80255 2.3124,1.71454 3.3338,2.73599 1.0213,1.02146 1.9333,2.13272 2.7358,3.3338 0.8025,1.20109 1.4802,2.46891 2.0331,3.8035 0.5529,1.33463 0.9701,2.71033 1.252,4.12711 0.2818,1.41678 0.4227,2.84744 0.4228,4.29199 z" /><path
             id="path248"
             style="fill:#00c853;fill-opacity:1;fill-rule:nonzero;stroke:none"
             d="m 1168,344 c -10e-5,-0.27615 0.098,-0.51187 0.2927,-0.70715 C 1168.488,343.09763 1168.7238,343 1169,343 h 16 c 0.2761,0 0.5118,0.0976 0.707,0.29285 0.1953,0.19528 0.293,0.431 0.293,0.70715 0,0.27612 -0.098,0.51181 -0.293,0.70709 -0.1952,0.19525 -0.4309,0.29288 -0.707,0.29291 h -16 c -0.2762,-3e-5 -0.512,-0.0977 -0.7073,-0.29291 -0.1952,-0.19528 -0.2928,-0.43097 -0.2927,-0.70709 z" /></g><g
           transform="matrix(0,1.4703326,-1.4703326,0,1840.3853,1288.3948)"
           id="g250"><path
             id="path252"
             style="fill:#00c853;fill-opacity:1;fill-rule:nonzero;stroke:none"
             d="M 0,1 C 0,0.72385758 0.09763107,0.48815534 0.2928932,0.2928932 0.48815534,0.09763107 0.72385758,0 1,0 h 16 c 0.27614,0 0.511843,0.09763107 0.707106,0.2928932 C 17.902367,0.48815534 17.999998,0.72385758 18,1 17.999998,1.2761424 17.90237,1.5118446 17.707106,1.7071067 17.511843,1.9023688 17.27614,1.9999999 17,2 H 1 C 0.72385758,1.9999999 0.48815534,1.9023688 0.2928932,1.7071067 0.09763107,1.5118446 0,1.2761424 0,1 Z" /></g><g
           transform="matrix(1.4703326,0,0,1.4703326,108.33333,795.83331)"
           id="g254"><text
             id="text258"
             style="font-variant:normal;font-weight:normal;font-size:14px;font-family:Font;-inkscape-font-specification:Font;writing-mode:lr-tb;fill:#000000;fill-opacity:1;fill-rule:nonzero;stroke:none"
             transform="translate(223,500)"><tspan
               id="tspan256"
               y="0"
               x="0 10 18 24 32 40 44 48 51 58 62 70 79 82 90 98 102 110 118 121 129 138 144 148 156 164 170 178 186 189 197 201 209 218 226 232 237 246 255 263 271">Aktuell sind keine Patienten eingetragen.</tspan></text>
<text
             id="text262"
             style="font-variant:normal;font-weight:normal;font-size:16px;font-family:Font;-inkscape-font-specification:Font;writing-mode:lr-tb;fill:#191919;fill-opacity:1;fill-rule:nonzero;stroke:none"
             transform="translate(223,462)"><tspan
               id="tspan260"
               y="0"
               x="0 11 15 25 29 36 46 50 59 65 69 83 93 99 106 115 121 131 140">Digitaler Warteraum</tspan></text>
<text
             id="text266"
             style="font-variant:normal;font-weight:normal;font-size:16px;font-family:Font;-inkscape-font-specification:Font;writing-mode:lr-tb;fill:#191919;fill-opacity:1;fill-rule:nonzero;stroke:none"
             transform="translate(223,620)"><tspan
               id="tspan264"
               y="0"
               x="0 12 18 26 33 42 46 56 60 70 78 87 94 103 113 122">Ärzte hinzufügen</tspan></text>
<path
             id="path268"
             style="fill:#dcebdd;fill-opacity:1;fill-rule:nonzero;stroke:none"
             d="m 223,684 v -36 c -2e-5,-0.53046 0.10149,-1.04071 0.30447,-1.53076 0.20298,-0.49011 0.49201,-0.92267 0.86708,-1.29773 0.37508,-0.37506 0.80764,-0.66412 1.29769,-0.86707 C 225.9593,644.1015 226.46956,644 227,644 h 192 c 0.53043,0 1.04065,0.1015 1.53073,0.30444 0.49005,0.20295 0.92261,0.49201 1.2977,0.86707 0.37506,0.37506 0.66409,0.80762 0.86707,1.29773 0.20297,0.49005 0.30447,1.0003 0.3045,1.53076 v 36 c -3e-5,0.5304 -0.10153,1.04065 -0.30453,1.5307 -0.20298,0.49005 -0.49198,0.92261 -0.86704,1.29773 -0.37509,0.37506 -0.80765,0.66406 -1.2977,0.867 C 420.04065,687.89844 419.53043,687.99994 419,688 H 227 c -0.53044,-6e-5 -1.04068,-0.10156 -1.53075,-0.30457 -0.49006,-0.20294 -0.92262,-0.49194 -1.2977,-0.867 -0.37507,-0.37512 -0.6641,-0.80768 -0.86709,-1.29773 C 223.10147,685.04065 222.99998,684.5304 223,684 Z" /></g></g></g><g
       id="g270"><g
         clip-path="url(#clipPath276)"
         id="g272"><g
           clip-path="url(#clipPath282)"
           id="g278"><g
             clip-path="url(#clipPath288)"
             id="g284"><g
               clip-path="url(#clipPath294)"
               id="g290"><g
                 clip-path="url(#clipPath300)"
                 id="g296"><g
                   transform="matrix(1.4703326,0,0,1.4703326,108.33333,795.83331)"
                   id="g302"><text
                     id="text306"
                     style="font-variant:normal;font-weight:normal;font-size:14px;font-family:Font;-inkscape-font-specification:Font;writing-mode:lr-tb;fill:#191919;fill-opacity:1;fill-rule:nonzero;stroke:none"
                     transform="translate(238,671)"><tspan
                       id="tspan304"
                       y="0"
                       x="0 10 14">Dr.</tspan></text>
</g></g></g></g></g></g></g><g
       id="g308"><g
         clip-path="url(#clipPath314)"
         id="g310"><g
           transform="matrix(1.633703,0,0,1.633703,699.32538,1758.7379)"
           id="g316"><path
             id="path318"
             style="fill:#00c853;fill-opacity:1;fill-rule:evenodd;stroke:none"
             d="M 6.059998,1.6959966 8.8046885,6.0875015 C 9.1705761,6.6729221 8.99261,7.4441099 8.4071894,7.8099976 8.2085247,7.9341631 7.9789653,8 7.7446904,8 H 2.2553096 c -0.690356,0 -1.25,-0.5596442 -1.25,-1.25 0,-0.2342749 0.065837,-0.4638343 0.1900021,-0.6624985 L 3.9400022,1.6959966 C 4.3058901,1.1105759 5.0770779,0.9326095 5.6624985,1.2984974 5.8234601,1.3990983 5.9593968,1.5350351 6.059998,1.6959966 Z" /></g><g
           transform="matrix(1.633703,0,0,-1.633703,699.32538,1811.0164)"
           id="g320"><path
             id="path322"
             style="fill:#00c853;fill-opacity:1;fill-rule:evenodd;stroke:none"
             d="m 6.059998,13.695996 2.7446905,4.391506 C 9.1705761,18.672922 8.99261,19.444111 8.4071894,19.809998 8.2085247,19.934164 7.9789653,20 7.7446904,20 H 2.2553096 c -0.690356,0 -1.25,-0.559645 -1.25,-1.25 0,-0.234274 0.065837,-0.463835 0.1900021,-0.662498 l 2.7446905,-4.391506 c 0.3658879,-0.58542 1.1370757,-0.763386 1.7224963,-0.397499 0.1609616,0.100601 0.2968983,0.236538 0.3974995,0.397499 z" /></g></g></g><g
       id="g324"><g
         clip-path="url(#clipPath330)"
         id="g326"><g
           transform="matrix(1.4703326,0,0,1.4703326,108.33333,795.83331)"
           id="g332"><path
             id="path334"
             style="fill:#e8f5e9;fill-opacity:1;fill-rule:nonzero;stroke:none"
             d="m 457,684 v -36 c -3e-5,-0.53046 0.10147,-1.04071 0.30444,-1.53076 0.20298,-0.49011 0.49204,-0.92267 0.86713,-1.29773 0.37506,-0.37506 0.80762,-0.66412 1.29764,-0.86707 C 459.95929,644.1015 460.46954,644 461,644 h 192 c 0.53033,0 1.04059,0.1015 1.5307,0.30444 0.48999,0.20295 0.92255,0.49201 1.29767,0.86707 0.37506,0.37506 0.66406,0.80762 0.86713,1.29773 0.20294,0.49005 0.30444,1.0003 0.3045,1.53076 v 36 c -6e-5,0.5304 -0.10156,1.04065 -0.3045,1.5307 -0.20307,0.49005 -0.49207,0.92261 -0.86713,1.29773 -0.37512,0.37506 -0.80768,0.66406 -1.29767,0.867 C 654.04059,687.89844 653.53033,687.99994 653,688 H 461 c -0.53046,-6e-5 -1.04071,-0.10156 -1.53079,-0.30457 -0.49002,-0.20294 -0.92258,-0.49194 -1.29764,-0.867 -0.37509,-0.37512 -0.66415,-0.80768 -0.86713,-1.29773 C 457.10147,685.04065 456.99997,684.5304 457,684 Z" /></g></g></g><g
       id="g336"><g
         clip-path="url(#clipPath342)"
         id="g338"><g
           clip-path="url(#clipPath348)"
           id="g344"><g
             clip-path="url(#clipPath354)"
             id="g350"><g
               clip-path="url(#clipPath360)"
               id="g356"><g
                 transform="matrix(1.4703326,0,0,1.4703326,108.33333,795.83331)"
                 id="g362"><text
                   id="text366"
                   style="font-variant:normal;font-weight:normal;font-size:14px;font-family:Font;-inkscape-font-specification:Font;writing-mode:lr-tb;fill:#959d95;fill-opacity:1;fill-rule:nonzero;stroke:none"
                   transform="translate(472,671)"><tspan
                     id="tspan364"
                     y="0"
                     x="0 9 17 22 30 39 51">Vorname</tspan></text>
</g></g></g></g></g></g><g
       id="g368"><g
         clip-path="url(#clipPath374)"
         id="g370"><g
           transform="matrix(1.4703326,0,0,1.4703326,108.33333,795.83331)"
           id="g376"><path
             id="path378"
             style="fill:#e8f5e9;fill-opacity:1;fill-rule:nonzero;stroke:none"
             d="m 691,684 v -36 c -6e-5,-0.53046 0.10144,-1.04071 0.30444,-1.53076 0.20295,-0.49011 0.49201,-0.92267 0.86713,-1.29773 0.375,-0.37506 0.80756,-0.66412 1.29767,-0.86707 C 693.95929,644.1015 694.46954,644 695,644 h 192 c 0.53033,0 1.04059,0.1015 1.53064,0.30444 0.49005,0.20295 0.92261,0.49201 1.29773,0.86707 0.37506,0.37506 0.66406,0.80762 0.86706,1.29773 0.20301,0.49005 0.30451,1.0003 0.30457,1.53076 v 36 c -6e-5,0.5304 -0.10156,1.04065 -0.30457,1.5307 -0.203,0.49005 -0.492,0.92261 -0.86706,1.29773 -0.37512,0.37506 -0.80768,0.66406 -1.29773,0.867 C 888.04059,687.89844 887.53033,687.99994 887,688 H 695 c -0.53046,-6e-5 -1.04071,-0.10156 -1.53076,-0.30457 -0.49011,-0.20294 -0.92267,-0.49194 -1.29767,-0.867 -0.37512,-0.37512 -0.66418,-0.80768 -0.86713,-1.29773 -0.203,-0.49005 -0.3045,-1.0003 -0.30444,-1.5307 z" /></g></g></g><g
       id="g380"><g
         clip-path="url(#clipPath386)"
         id="g382"><g
           clip-path="url(#clipPath392)"
           id="g388"><g
             clip-path="url(#clipPath398)"
             id="g394"><g
               clip-path="url(#clipPath404)"
               id="g400"><g
                 transform="matrix(1.4703326,0,0,1.4703326,108.33333,795.83331)"
                 id="g406"><text
                   id="text410"
                   style="font-variant:normal;font-weight:normal;font-size:14px;font-family:Font;-inkscape-font-specification:Font;writing-mode:lr-tb;fill:#959d95;fill-opacity:1;fill-rule:nonzero;stroke:none"
                   transform="translate(706,671)"><tspan
                     id="tspan408"
                     y="0"
                     x="0 11 20 32">Name</tspan></text>
</g></g></g></g></g></g><g
       id="g412"><g
         clip-path="url(#clipPath418)"
         id="g414"><g
           transform="matrix(1.4703326,0,0,1.4703326,108.33333,795.83331)"
           id="g420"><path
             id="path422"
             style="fill:#e8f5e9;fill-opacity:1;fill-rule:nonzero;stroke:none"
             d="m 965,666 c -6e-5,1.44452 -0.14099,2.87512 -0.42279,4.29193 -0.28186,1.41681 -0.69922,2.79248 -1.25201,4.12708 -0.5528,1.33453 -1.23047,2.60241 -2.03296,3.80352 -0.80255,1.20105 -1.71454,2.31232 -2.73597,3.33381 -1.02148,1.02148 -2.13275,1.93347 -3.33386,2.73602 -1.20111,0.80255 -2.46893,1.48016 -3.80353,2.03296 -1.33453,0.55279 -2.7102,0.97009 -4.12701,1.25189 C 945.87512,687.85907 944.44452,688 943,688 c -1.44458,0 -2.87524,-0.14093 -4.29205,-0.42279 -1.41681,-0.2818 -2.79248,-0.6991 -4.12708,-1.25189 -1.33459,-0.5528 -2.60242,-1.23047 -3.80353,-2.03302 -1.20111,-0.80249 -2.31231,-1.71448 -3.33374,-2.73596 -1.02142,-1.02149 -1.93347,-2.13276 -2.73608,-3.33387 -0.80255,-1.20111 -1.48023,-2.46893 -2.03302,-3.80346 -0.55273,-1.3346 -0.97003,-2.71027 -1.25183,-4.12708 C 921.14087,668.87512 921,667.44452 921,666 c 0,-1.44458 0.14087,-2.87524 0.42267,-4.29205 0.2818,-1.41681 0.6991,-2.79248 1.25189,-4.12708 0.5528,-1.33453 1.23047,-2.60242 2.03296,-3.80353 0.80261,-1.20111 1.71466,-2.31231 2.73608,-3.33374 1.02143,-1.02142 2.13269,-1.93347 3.3338,-2.73602 1.20105,-0.80255 2.46888,-1.48022 3.80353,-2.03302 1.33454,-0.55279 2.71021,-0.97009 4.12702,-1.25189 C 940.12476,644.14087 941.55542,644 943,644 c 1.44452,0 2.87512,0.14087 4.29187,0.42267 1.41681,0.2818 2.79248,0.6991 4.12701,1.25189 1.3346,0.5528 2.60242,1.23047 3.80353,2.03302 1.20111,0.80255 2.31238,1.7146 3.33386,2.73602 1.02143,1.02143 1.93342,2.13263 2.73597,3.33374 0.80249,1.20111 1.48016,2.469 2.03296,3.80353 0.55279,1.3346 0.97015,2.71027 1.25201,4.12708 0.2818,1.41681 0.42273,2.84747 0.42279,4.29205 z" /><path
             id="path424"
             style="fill:#00c853;fill-opacity:1;fill-rule:nonzero;stroke:none"
             d="m 934,666 c -6e-5,-0.27618 0.0976,-0.51184 0.29285,-0.70709 C 934.4881,665.09766 934.72382,665 935,665 h 16 c 0.27606,0 0.51178,0.0977 0.70703,0.29291 0.19525,0.19525 0.29291,0.43091 0.29297,0.70709 -6e-5,0.27612 -0.0977,0.51184 -0.29297,0.70709 C 951.51178,666.90234 951.27606,667 951,667 h -16 c -0.27618,0 -0.5119,-0.0977 -0.70715,-0.29291 C 934.0976,666.51184 933.99994,666.27612 934,666 Z" /></g><g
           transform="matrix(0,1.4703326,-1.4703326,0,1496.3274,1761.8418)"
           id="g426"><path
             id="path428"
             style="fill:#00c853;fill-opacity:1;fill-rule:nonzero;stroke:none"
             d="M 0,1 C 0,0.72385758 0.09763107,0.48815534 0.2928932,0.2928932 0.48815534,0.09763107 0.72385758,0 1,0 h 16 c 0.27614,0 0.511843,0.09763107 0.707106,0.2928932 C 17.902367,0.48815534 17.999998,0.72385758 18,1 17.999998,1.2761424 17.90237,1.5118446 17.707106,1.7071067 17.511843,1.9023688 17.27614,1.9999999 17,2 H 1 C 0.72385758,1.9999999 0.48815534,1.9023688 0.2928932,1.7071067 0.09763107,1.5118446 0,1.2761424 0,1 Z" /></g><g
           transform="matrix(1.4703326,0,0,1.4703326,108.33333,795.83331)"
           id="g430"><text
             id="text434"
             style="font-variant:normal;font-weight:normal;font-size:14px;font-family:Font;-inkscape-font-specification:Font;writing-mode:lr-tb;fill:#000000;fill-opacity:1;fill-rule:nonzero;stroke:none"
             transform="translate(223,822)"><tspan
               id="tspan432"
               y="0"
               x="0 10 18 24 32 40 44 48 51 58 62 70 79 82 90 98 102 110 118 121 131 136 143 149 157 160 168 172 180 189 197 203 208 217 226 234 242">Aktuell sind keine Ärzte eingetragen.</tspan></text>
<text
             id="text438"
             style="font-variant:normal;font-weight:normal;font-size:16px;font-family:Font;-inkscape-font-specification:Font;writing-mode:lr-tb;fill:#191919;fill-opacity:1;fill-rule:nonzero;stroke:none"
             transform="translate(223,784)"><tspan
               id="tspan436"
               y="0"
               x="0 12 18 26 33 42 46 50 58 65">Ärzteliste</tspan></text>
<text
             id="text442"
             style="font-variant:normal;font-weight:normal;font-size:14px;font-family:Font;-inkscape-font-specification:Font;writing-mode:lr-tb;fill:#000000;fill-opacity:1;fill-rule:nonzero;stroke:none"
             transform="translate(223,930)"><tspan
               id="tspan440"
               y="0"
               x="0 11 15 23 28 31 39 48 56 64 71 77 80 89 97 100 109 117 121 129 137 145 148 161 170 175 181 189 194 203 211 223 226 234 242 251 254 263 267 271 279 282 291 299 306 315 323 327 335 343 351 356 362 370 378 381 391 400 406 414 422 425 429 437 444 452 460 468 476">Hier kannst du deinen Warteraum und alle gespeicherten Daten löschen.</tspan></text>
<path
             id="path444"
             style="fill:#e64a19;fill-opacity:1;fill-rule:nonzero;stroke:none"
             d="m 223,965 h 124 v 1 H 223 Z" /><text
             id="text448"
             style="font-variant:normal;font-weight:normal;font-size:14px;font-family:Font;-inkscape-font-specification:Font;writing-mode:lr-tb;fill:#e64a19;fill-opacity:1;fill-rule:nonzero;stroke:none"
             transform="translate(223,964)"><tspan
               id="tspan446"
               y="0"
               x="0 10 14 18 26 29 39 48 54 62 70 73 77 85 92 100 108 116">Alle Daten löschen</tspan></text>
<text
             id="text452"
             style="font-variant:normal;font-weight:normal;font-size:16px;font-family:Font;-inkscape-font-specification:Font;writing-mode:lr-tb;fill:#191919;fill-opacity:1;fill-rule:nonzero;stroke:none"
             transform="translate(223,892)"><tspan
               id="tspan450"
               y="0"
               x="0 11 21 28 37 47 51 55 64 72 81 91 100">Daten löschen</tspan></text>
</g></g></g></g></svg>