<?xml version="1.0" encoding="UTF-8" standalone="no"?>
<svg
   xmlns:dc="http://purl.org/dc/elements/1.1/"
   xmlns:cc="http://creativecommons.org/ns#"
   xmlns:rdf="http://www.w3.org/1999/02/22-rdf-syntax-ns#"
   xmlns:svg="http://www.w3.org/2000/svg"
   xmlns="http://www.w3.org/2000/svg"
   viewBox="0 0 816 1056"
   height="1056"
   width="816"
   xml:space="preserve"
   id="svg2"
   version="1.1"><metadata
     id="metadata8"><rdf:RDF><cc:Work
         rdf:about=""><dc:format>image/svg+xml</dc:format><dc:type
           rdf:resource="http://purl.org/dc/dcmitype/StillImage" /></cc:Work></rdf:RDF></metadata><defs
     id="defs6"><clipPath
       id="clipPath18"
       clipPathUnits="userSpaceOnUse"><path
         style="clip-rule:evenodd"
         id="path16"
         d="M 108.33333,795.83331 H 2437.5 V 2495.5379 H 108.33333 Z" /></clipPath><clipPath
       id="clipPath36"
       clipPathUnits="userSpaceOnUse"><path
         style="clip-rule:evenodd"
         id="path34"
         d="M 108.33333,957.56989 H 2437.5 V 2495.5379 H 108.33333 Z" /></clipPath><clipPath
       id="clipPath56"
       clipPathUnits="userSpaceOnUse"><path
         id="path54"
         d="M 108.33333,795.83331 H 2437.5 V 2495.8333 H 108.33333 Z" /></clipPath><clipPath
       id="clipPath62"
       clipPathUnits="userSpaceOnUse"><path
         id="path60"
         d="M 108.33333,795.83331 H 2440.2808 V 2495.5379 H 108.33333 Z" /></clipPath><clipPath
       id="clipPath68"
       clipPathUnits="userSpaceOnUse"><path
         id="path66"
         d="M 108.33333,957.56989 H 2440.2808 V 2495.5379 H 108.33333 Z" /></clipPath><clipPath
       id="clipPath74"
       clipPathUnits="userSpaceOnUse"><path
         id="path72"
         d="m 436.21753,1328.0938 v -52.9321 c 0,-1.6241 0.57419,-3.0105 1.72259,-4.1588 1.14838,-1.1483 2.53461,-1.7225 4.15873,-1.7225 h 282.3038 c 1.62408,0 3.01031,0.5742 4.15869,1.7225 1.14838,1.1483 1.7226,2.5347 1.72266,4.1588 v 52.9321 c -6e-5,1.6239 -0.57428,3.0101 -1.72266,4.1586 -1.14838,1.1484 -2.53461,1.7226 -4.15869,1.7227 h -282.3038 c -1.62412,-1e-4 -3.01035,-0.5743 -4.15876,-1.7227 -1.14837,-1.1485 -1.72256,-2.5347 -1.72256,-4.1586 z" /></clipPath><clipPath
       id="clipPath88"
       clipPathUnits="userSpaceOnUse"><path
         style="clip-rule:evenodd"
         id="path86"
         d="M 108.33333,957.56989 H 2437.5 V 2495.5379 H 108.33333 Z" /></clipPath><clipPath
       id="clipPath100"
       clipPathUnits="userSpaceOnUse"><path
         id="path98"
         d="M 108.33333,795.83331 H 2437.5 V 2495.8333 H 108.33333 Z" /></clipPath><clipPath
       id="clipPath106"
       clipPathUnits="userSpaceOnUse"><path
         id="path104"
         d="M 108.33333,795.83331 H 2440.2808 V 2495.5379 H 108.33333 Z" /></clipPath><clipPath
       id="clipPath112"
       clipPathUnits="userSpaceOnUse"><path
         id="path110"
         d="M 108.33333,957.56989 H 2440.2808 V 2495.5379 H 108.33333 Z" /></clipPath><clipPath
       id="clipPath118"
       clipPathUnits="userSpaceOnUse"><path
         id="path116"
         d="m 780.27533,1328.0938 v -52.9321 c -6e-5,-1.6241 0.57416,-3.0105 1.72253,-4.1588 1.14844,-1.1483 2.53473,-1.7225 4.15882,-1.7225 h 282.30392 c 1.624,0 3.0102,0.5742 4.1587,1.7225 1.1483,1.1483 1.7225,2.5347 1.7226,4.1588 v 52.9321 c -10e-5,1.6239 -0.5743,3.0101 -1.7226,4.1586 -1.1485,1.1484 -2.5347,1.7226 -4.1587,1.7227 H 786.15668 c -1.62409,-1e-4 -3.01038,-0.5743 -4.15882,-1.7227 -1.14837,-1.1485 -1.72259,-2.5347 -1.72253,-4.1586 z" /></clipPath><clipPath
       id="clipPath132"
       clipPathUnits="userSpaceOnUse"><path
         style="clip-rule:evenodd"
         id="path130"
         d="M 108.33333,957.56989 H 2437.5 V 2495.5379 H 108.33333 Z" /></clipPath><clipPath
       id="clipPath144"
       clipPathUnits="userSpaceOnUse"><path
         id="path142"
         d="M 108.33333,795.83331 H 2437.5 V 2495.8333 H 108.33333 Z" /></clipPath><clipPath
       id="clipPath150"
       clipPathUnits="userSpaceOnUse"><path
         id="path148"
         d="M 108.33333,795.83331 H 2440.2808 V 2495.5379 H 108.33333 Z" /></clipPath><clipPath
       id="clipPath156"
       clipPathUnits="userSpaceOnUse"><path
         id="path154"
         d="M 108.33333,957.56989 H 2440.2808 V 2495.5379 H 108.33333 Z" /></clipPath><clipPath
       id="clipPath162"
       clipPathUnits="userSpaceOnUse"><path
         id="path160"
         d="m 1124.3331,1328.0938 v -52.9321 c -10e-5,-1.6241 0.5741,-3.0105 1.7226,-4.1588 1.1484,-1.1483 2.5346,-1.7225 4.1588,-1.7225 h 282.3039 c 1.6241,0 3.0103,0.5742 4.1587,1.7225 1.1483,1.1483 1.7226,2.5347 1.7227,4.1588 v 52.9321 c -10e-5,1.6239 -0.5744,3.0101 -1.7227,4.1586 -1.1484,1.1484 -2.5346,1.7226 -4.1587,1.7227 h -282.3039 c -1.6242,-1e-4 -3.0104,-0.5743 -4.1588,-1.7227 -1.1485,-1.1485 -1.7227,-2.5347 -1.7226,-4.1586 z" /></clipPath><clipPath
       id="clipPath176"
       clipPathUnits="userSpaceOnUse"><path
         style="clip-rule:evenodd"
         id="path174"
         d="M 108.33333,957.56989 H 2437.5 V 2495.5379 H 108.33333 Z" /></clipPath><clipPath
       id="clipPath188"
       clipPathUnits="userSpaceOnUse"><path
         id="path186"
         d="M 108.33333,795.83331 H 2437.5 V 2495.8333 H 108.33333 Z" /></clipPath><clipPath
       id="clipPath194"
       clipPathUnits="userSpaceOnUse"><path
         id="path192"
         d="M 108.33333,795.83331 H 2440.2808 V 2495.5379 H 108.33333 Z" /></clipPath><clipPath
       id="clipPath200"
       clipPathUnits="userSpaceOnUse"><path
         id="path198"
         d="M 108.33333,957.56989 H 2440.2808 V 2495.5379 H 108.33333 Z" /></clipPath><clipPath
       id="clipPath206"
       clipPathUnits="userSpaceOnUse"><path
         id="path204"
         d="m 1468.391,1328.0938 v -52.9321 c -10e-5,-1.6241 0.5741,-3.0105 1.7225,-4.1588 1.1483,-1.1483 2.5347,-1.7225 4.1588,-1.7225 h 282.3039 c 1.624,0 3.0102,0.5742 4.1585,1.7225 1.1485,1.1483 1.7227,2.5347 1.7228,4.1588 v 52.9321 c -10e-5,1.6239 -0.5743,3.0101 -1.7228,4.1586 -1.1483,1.1484 -2.5345,1.7226 -4.1585,1.7227 h -282.3039 c -1.6241,-1e-4 -3.0105,-0.5743 -4.1588,-1.7227 -1.1484,-1.1485 -1.7226,-2.5347 -1.7225,-4.1586 z" /></clipPath><clipPath
       id="clipPath212"
       clipPathUnits="userSpaceOnUse"><path
         id="path210"
         d="m 1490.446,1288.3948 h 249.9566 v 26.4659 H 1490.446 Z" /></clipPath><clipPath
       id="clipPath226"
       clipPathUnits="userSpaceOnUse"><path
         style="clip-rule:evenodd"
         id="path224"
         d="m 1733.0509,1286.9243 h 13.233 v 29.4066 h -13.233 z" /></clipPath><clipPath
       id="clipPath242"
       clipPathUnits="userSpaceOnUse"><path
         style="clip-rule:evenodd"
         id="path240"
         d="M 108.33333,957.56989 H 2437.5 V 2495.5379 H 108.33333 Z" /></clipPath><clipPath
       id="clipPath306"
       clipPathUnits="userSpaceOnUse"><path
         id="path304"
         d="M 108.33333,795.83331 H 2437.5 V 2495.8333 H 108.33333 Z" /></clipPath><clipPath
       id="clipPath312"
       clipPathUnits="userSpaceOnUse"><path
         id="path310"
         d="M 108.33333,795.83331 H 2440.2808 V 2495.5379 H 108.33333 Z" /></clipPath><clipPath
       id="clipPath318"
       clipPathUnits="userSpaceOnUse"><path
         id="path316"
         d="M 108.33333,957.56989 H 2440.2808 V 2495.5379 H 108.33333 Z" /></clipPath><clipPath
       id="clipPath324"
       clipPathUnits="userSpaceOnUse"><path
         id="path322"
         d="m 436.21753,1869.176 v -52.9319 c 0,-1.6242 0.57419,-3.0106 1.72259,-4.1589 1.14838,-1.1483 2.53461,-1.7224 4.15873,-1.7224 h 282.3038 c 1.62408,0 3.01031,0.5742 4.15869,1.7225 1.14838,1.1483 1.7226,2.5346 1.72266,4.1588 v 52.9319 c -6e-5,1.624 -0.57428,3.0103 -1.72266,4.1586 -1.14838,1.1484 -2.53461,1.7227 -4.15869,1.7228 h -282.3038 c -1.62412,-10e-5 -3.01035,-0.5744 -4.15876,-1.7228 -1.14837,-1.1483 -1.72256,-2.5346 -1.72256,-4.1586 z" /></clipPath><clipPath
       id="clipPath330"
       clipPathUnits="userSpaceOnUse"><path
         id="path328"
         d="M 458.27252,1829.4771 H 708.229 v 26.4661 H 458.27252 Z" /></clipPath><clipPath
       id="clipPath344"
       clipPathUnits="userSpaceOnUse"><path
         style="clip-rule:evenodd"
         id="path342"
         d="m 700.87738,1828.0068 h 13.23297 v 29.4066 h -13.23297 z" /></clipPath><clipPath
       id="clipPath360"
       clipPathUnits="userSpaceOnUse"><path
         style="clip-rule:evenodd"
         id="path358"
         d="M 108.33333,957.56989 H 2437.5 V 2495.5379 H 108.33333 Z" /></clipPath><clipPath
       id="clipPath372"
       clipPathUnits="userSpaceOnUse"><path
         id="path370"
         d="M 108.33333,795.83331 H 2437.5 V 2495.8333 H 108.33333 Z" /></clipPath><clipPath
       id="clipPath378"
       clipPathUnits="userSpaceOnUse"><path
         id="path376"
         d="M 108.33333,795.83331 H 2440.2808 V 2495.5379 H 108.33333 Z" /></clipPath><clipPath
       id="clipPath384"
       clipPathUnits="userSpaceOnUse"><path
         id="path382"
         d="M 108.33333,957.56989 H 2440.2808 V 2495.5379 H 108.33333 Z" /></clipPath><clipPath
       id="clipPath390"
       clipPathUnits="userSpaceOnUse"><path
         id="path388"
         d="m 780.27533,1869.176 v -52.9319 c -6e-5,-1.6242 0.57416,-3.0106 1.72253,-4.1589 1.14844,-1.1483 2.53473,-1.7224 4.15882,-1.7224 h 282.30392 c 1.624,0 3.0102,0.5742 4.1587,1.7225 1.1483,1.1483 1.7225,2.5346 1.7226,4.1588 v 52.9319 c -10e-5,1.624 -0.5743,3.0103 -1.7226,4.1586 -1.1485,1.1484 -2.5347,1.7227 -4.1587,1.7228 H 786.15668 c -1.62409,-10e-5 -3.01038,-0.5744 -4.15882,-1.7228 -1.14837,-1.1483 -1.72259,-2.5346 -1.72253,-4.1586 z" /></clipPath><clipPath
       id="clipPath404"
       clipPathUnits="userSpaceOnUse"><path
         style="clip-rule:evenodd"
         id="path402"
         d="M 108.33333,957.56989 H 2437.5 V 2495.5379 H 108.33333 Z" /></clipPath><clipPath
       id="clipPath416"
       clipPathUnits="userSpaceOnUse"><path
         id="path414"
         d="M 108.33333,795.83331 H 2437.5 V 2495.8333 H 108.33333 Z" /></clipPath><clipPath
       id="clipPath422"
       clipPathUnits="userSpaceOnUse"><path
         id="path420"
         d="M 108.33333,795.83331 H 2440.2808 V 2495.5379 H 108.33333 Z" /></clipPath><clipPath
       id="clipPath428"
       clipPathUnits="userSpaceOnUse"><path
         id="path426"
         d="M 108.33333,957.56989 H 2440.2808 V 2495.5379 H 108.33333 Z" /></clipPath><clipPath
       id="clipPath434"
       clipPathUnits="userSpaceOnUse"><path
         id="path432"
         d="m 1124.3331,1869.176 v -52.9319 c -10e-5,-1.6242 0.5741,-3.0106 1.7226,-4.1589 1.1484,-1.1483 2.5346,-1.7224 4.1588,-1.7224 h 282.3039 c 1.6241,0 3.0103,0.5742 4.1587,1.7225 1.1483,1.1483 1.7226,2.5346 1.7227,4.1588 v 52.9319 c -10e-5,1.624 -0.5744,3.0103 -1.7227,4.1586 -1.1484,1.1484 -2.5346,1.7227 -4.1587,1.7228 h -282.3039 c -1.6242,-10e-5 -3.0104,-0.5744 -4.1588,-1.7228 -1.1485,-1.1483 -1.7227,-2.5346 -1.7226,-4.1586 z" /></clipPath><clipPath
       id="clipPath448"
       clipPathUnits="userSpaceOnUse"><path
         style="clip-rule:evenodd"
         id="path446"
         d="M 108.33333,957.56989 H 2437.5 V 2495.5379 H 108.33333 Z" /></clipPath></defs><g
     transform="matrix(0.31999998,0,0,0.31999998,0,2.64e-5)"
     id="g10"><g
       id="g12"><g
         clip-path="url(#clipPath18)"
         id="g14"><g
           transform="matrix(1.4703326,0,0,1.4703326,108.33333,795.83331)"
           id="g20"><path
             id="path22"
             style="fill:#ffffff;fill-opacity:1;fill-rule:nonzero;stroke:none"
             d="M 0,0 H 1586 V 1156 H 0 Z" /><path
             id="path24"
             style="fill:#ffffff;fill-opacity:1;fill-rule:nonzero;stroke:none"
             d="M 163,0 H 1423 V 110 H 163 Z" /><text
             id="text28"
             style="font-variant:normal;font-weight:normal;font-size:16px;font-family:Font;-inkscape-font-specification:Font;writing-mode:lr-tb;fill:#00c853;fill-opacity:1;fill-rule:nonzero;stroke:none"
             transform="translate(223,61)"><tspan
               id="tspan26"
               y="0"
               x="0 8 19 28 33 42 55 64 68 76 88 101 110">PATIENT PAGER</tspan></text>
</g></g></g><g
       id="g30"><g
         clip-path="url(#clipPath36)"
         id="g32"><g
           transform="matrix(1.4703326,0,0,1.4703326,108.33333,957.56989)"
           id="g38"><text
             id="text42"
             style="font-variant:normal;font-weight:normal;font-size:45px;font-family:Font;-inkscape-font-specification:Font;writing-mode:lr-tb;fill:#000000;fill-opacity:1;fill-rule:nonzero;stroke:none"
             transform="translate(223,80)"><tspan
               id="tspan40"
               y="0"
               x="0 43 55 67 79 103 130 170 210 237 264 274 286 313 323 351 378 390 417 444 484 494 522 534 562 574 593 621 633 660 687 696 737 765 783 802 829 846 874 900 940">Willkommen in deinem digitalen Warteraum.</tspan></text>
<text
             id="text46"
             style="font-variant:normal;font-weight:normal;font-size:16px;font-family:Font;-inkscape-font-specification:Font;writing-mode:lr-tb;fill:#191919;fill-opacity:1;fill-rule:nonzero;stroke:none"
             transform="translate(223,188)"><tspan
               id="tspan44"
               y="0"
               x="0 9 19 26 30 39 49 56 65 75 79 88 92 102 111 121 130 139 148 157">Patienten einchecken</tspan></text>
<path
             id="path48"
             style="fill:#e8f5e9;fill-opacity:1;fill-rule:nonzero;stroke:none"
             d="m 223,252 v -36 c -2e-5,-0.53046 0.10149,-1.04071 0.30447,-1.53076 0.20298,-0.49007 0.49201,-0.92262 0.86708,-1.29769 0.37508,-0.37507 0.80764,-0.6641 1.29769,-0.86709 C 225.9593,212.10149 226.46956,212 227,212 h 192 c 0.53043,0 1.04065,0.10149 1.53073,0.30447 0.49005,0.20299 0.92261,0.49201 1.2977,0.86708 0.37506,0.37507 0.66409,0.80762 0.86707,1.29769 0.20297,0.49005 0.30447,1.0003 0.3045,1.53076 v 36 c -3e-5,0.53043 -0.10153,1.04066 -0.30453,1.53072 -0.20298,0.49005 -0.49198,0.92262 -0.86704,1.29769 -0.37509,0.37505 -0.80765,0.66408 -1.2977,0.86709 -0.49008,0.20298 -1.0003,0.30448 -1.53073,0.3045 H 227 c -0.53044,-2e-5 -1.04068,-0.10152 -1.53075,-0.3045 -0.49006,-0.20301 -0.92262,-0.49204 -1.2977,-0.86709 -0.37507,-0.37507 -0.6641,-0.80764 -0.86709,-1.29771 C 223.10147,253.04066 222.99998,252.53043 223,252 Z" /></g></g></g><g
       id="g50"><g
         clip-path="url(#clipPath56)"
         id="g52"><g
           clip-path="url(#clipPath62)"
           id="g58"><g
             clip-path="url(#clipPath68)"
             id="g64"><g
               clip-path="url(#clipPath74)"
               id="g70"><g
                 transform="matrix(1.4703326,0,0,1.4703326,108.33333,957.56989)"
                 id="g76"><text
                   id="text80"
                   style="font-variant:normal;font-weight:normal;font-size:14px;font-family:Font;-inkscape-font-specification:Font;writing-mode:lr-tb;fill:#959d95;fill-opacity:1;fill-rule:nonzero;stroke:none"
                   transform="translate(238,239)"><tspan
                     id="tspan78"
                     y="0"
                     x="0 9 17 22 30 39 51">Vorname</tspan></text>
</g></g></g></g></g></g><g
       id="g82"><g
         clip-path="url(#clipPath88)"
         id="g84"><g
           transform="matrix(1.4703326,0,0,1.4703326,108.33333,957.56989)"
           id="g90"><path
             id="path92"
             style="fill:#e8f5e9;fill-opacity:1;fill-rule:nonzero;stroke:none"
             d="m 457,252 v -36 c -3e-5,-0.53046 0.10147,-1.04071 0.30444,-1.53076 0.20298,-0.49007 0.49204,-0.92262 0.86713,-1.29769 0.37506,-0.37507 0.80762,-0.6641 1.29764,-0.86709 C 459.95929,212.10149 460.46954,212 461,212 h 192 c 0.53033,0 1.04059,0.10149 1.5307,0.30447 0.48999,0.20299 0.92255,0.49201 1.29767,0.86708 0.37506,0.37507 0.66406,0.80762 0.86713,1.29769 0.20294,0.49005 0.30444,1.0003 0.3045,1.53076 v 36 c -6e-5,0.53043 -0.10156,1.04066 -0.3045,1.53072 -0.20307,0.49005 -0.49207,0.92262 -0.86713,1.29769 -0.37512,0.37505 -0.80768,0.66408 -1.29767,0.86709 -0.49011,0.20298 -1.00037,0.30448 -1.5307,0.3045 H 461 c -0.53046,-2e-5 -1.04071,-0.10152 -1.53079,-0.3045 -0.49002,-0.20301 -0.92258,-0.49204 -1.29764,-0.86709 -0.37509,-0.37507 -0.66415,-0.80764 -0.86713,-1.29771 C 457.10147,253.04066 456.99997,252.53043 457,252 Z" /></g></g></g><g
       id="g94"><g
         clip-path="url(#clipPath100)"
         id="g96"><g
           clip-path="url(#clipPath106)"
           id="g102"><g
             clip-path="url(#clipPath112)"
             id="g108"><g
               clip-path="url(#clipPath118)"
               id="g114"><g
                 transform="matrix(1.4703326,0,0,1.4703326,108.33333,957.56989)"
                 id="g120"><text
                   id="text124"
                   style="font-variant:normal;font-weight:normal;font-size:14px;font-family:Font;-inkscape-font-specification:Font;writing-mode:lr-tb;fill:#959d95;fill-opacity:1;fill-rule:nonzero;stroke:none"
                   transform="translate(472,239)"><tspan
                     id="tspan122"
                     y="0"
                     x="0 11 20 28 36 44 53 65">Nachname</tspan></text>
</g></g></g></g></g></g><g
       id="g126"><g
         clip-path="url(#clipPath132)"
         id="g128"><g
           transform="matrix(1.4703326,0,0,1.4703326,108.33333,957.56989)"
           id="g134"><path
             id="path136"
             style="fill:#e8f5e9;fill-opacity:1;fill-rule:nonzero;stroke:none"
             d="m 691,252 v -36 c -6e-5,-0.53046 0.10144,-1.04071 0.30444,-1.53076 0.20295,-0.49007 0.49201,-0.92262 0.86713,-1.29769 0.375,-0.37507 0.80756,-0.6641 1.29767,-0.86709 C 693.95929,212.10149 694.46954,212 695,212 h 192 c 0.53033,0 1.04059,0.10149 1.53064,0.30447 0.49005,0.20299 0.92261,0.49201 1.29773,0.86708 0.37506,0.37507 0.66406,0.80762 0.86706,1.29769 0.20301,0.49005 0.30451,1.0003 0.30457,1.53076 v 36 c -6e-5,0.53043 -0.10156,1.04066 -0.30457,1.53072 -0.203,0.49005 -0.492,0.92262 -0.86706,1.29769 -0.37512,0.37505 -0.80768,0.66408 -1.29773,0.86709 C 888.04059,255.89848 887.53033,255.99998 887,256 H 695 c -0.53046,-2e-5 -1.04071,-0.10152 -1.53076,-0.3045 -0.49011,-0.20301 -0.92267,-0.49204 -1.29767,-0.86709 -0.37512,-0.37507 -0.66418,-0.80764 -0.86713,-1.29771 -0.203,-0.49004 -0.3045,-1.00027 -0.30444,-1.5307 z" /></g></g></g><g
       id="g138"><g
         clip-path="url(#clipPath144)"
         id="g140"><g
           clip-path="url(#clipPath150)"
           id="g146"><g
             clip-path="url(#clipPath156)"
             id="g152"><g
               clip-path="url(#clipPath162)"
               id="g158"><g
                 transform="matrix(1.4703326,0,0,1.4703326,108.33333,957.56989)"
                 id="g164"><text
                   id="text168"
                   style="font-variant:normal;font-weight:normal;font-size:14px;font-family:Font;-inkscape-font-specification:Font;writing-mode:lr-tb;fill:#959d95;fill-opacity:1;fill-rule:nonzero;stroke:none"
                   transform="translate(706,239)"><tspan
                     id="tspan166"
                     y="0"
                     x="0 7 15 19 27 32 40 48 56 64 76 88 96">Telefonnummer</tspan></text>
</g></g></g></g></g></g><g
       id="g170"><g
         clip-path="url(#clipPath176)"
         id="g172"><g
           transform="matrix(1.4703326,0,0,1.4703326,108.33333,957.56989)"
           id="g178"><path
             id="path180"
             style="fill:#e8f5e9;fill-opacity:1;fill-rule:nonzero;stroke:none"
             d="m 925,252 v -36 c -6e-5,-0.53046 0.10144,-1.04071 0.30438,-1.53076 0.20294,-0.49007 0.49201,-0.92262 0.86713,-1.29769 0.37506,-0.37507 0.80762,-0.6641 1.29767,-0.86709 C 927.95923,212.10149 928.46948,212 929,212 h 192 c 0.5304,0 1.0405,0.10149 1.5305,0.30447 0.4901,0.20299 0.9228,0.49201 1.2979,0.86708 0.375,0.37507 0.6639,0.80762 0.8669,1.29769 0.203,0.49005 0.3046,1.0003 0.3047,1.53076 v 36 c -10e-5,0.53043 -0.1017,1.04066 -0.3047,1.53072 -0.203,0.49005 -0.4919,0.92262 -0.8669,1.29769 -0.3751,0.37505 -0.8078,0.66408 -1.2979,0.86709 -0.49,0.20298 -1.0001,0.30448 -1.5305,0.3045 H 929 c -0.53052,-2e-5 -1.04077,-0.10152 -1.53082,-0.3045 -0.49005,-0.20301 -0.92261,-0.49204 -1.29767,-0.86709 -0.37512,-0.37507 -0.66419,-0.80764 -0.86713,-1.29771 C 925.10144,253.04066 924.99994,252.53043 925,252 Z" /></g></g></g><g
       id="g182"><g
         clip-path="url(#clipPath188)"
         id="g184"><g
           clip-path="url(#clipPath194)"
           id="g190"><g
             clip-path="url(#clipPath200)"
             id="g196"><g
               clip-path="url(#clipPath206)"
               id="g202"><g
                 clip-path="url(#clipPath212)"
                 id="g208"><g
                   transform="matrix(1.4703326,0,0,1.4703326,108.33333,957.56989)"
                   id="g214"><text
                     id="text218"
                     style="font-variant:normal;font-weight:normal;font-size:14px;font-family:Font;-inkscape-font-specification:Font;writing-mode:lr-tb;fill:#191919;fill-opacity:1;fill-rule:nonzero;stroke:none"
                     transform="translate(940,239)"><tspan
                       id="tspan216"
                       y="0"
                       x="0 10 14 18 21 33 41 52 60">Dr. McCoy</tspan></text>
</g></g></g></g></g></g></g><g
       id="g220"><g
         clip-path="url(#clipPath226)"
         id="g222"><g
           transform="matrix(1.633703,0,0,1.633703,1731.4989,1285.2907)"
           id="g228"><path
             id="path230"
             style="fill:#00c853;fill-opacity:1;fill-rule:evenodd;stroke:none"
             d="M 6.059998,1.6959966 8.8046885,6.0875015 C 9.1705761,6.6729221 8.99261,7.4441099 8.4071894,7.8099976 8.2085247,7.9341631 7.9789653,8 7.7446904,8 H 2.2553096 c -0.690356,0 -1.25,-0.5596442 -1.25,-1.25 0,-0.2342749 0.065837,-0.4638343 0.1900021,-0.6624985 L 3.9400022,1.6959966 C 4.3058901,1.1105759 5.0770779,0.9326095 5.6624985,1.2984974 5.8234601,1.3990983 5.9593968,1.5350351 6.059998,1.6959966 Z" /></g><g
           transform="matrix(1.633703,0,0,-1.633703,1731.4989,1337.5691)"
           id="g232"><path
             id="path234"
             style="fill:#00c853;fill-opacity:1;fill-rule:evenodd;stroke:none"
             d="m 6.059998,13.695996 2.7446905,4.391506 C 9.1705761,18.672922 8.99261,19.444111 8.4071894,19.809998 8.2085247,19.934164 7.9789653,20 7.7446904,20 H 2.2553096 c -0.690356,0 -1.25,-0.559645 -1.25,-1.25 0,-0.234274 0.065837,-0.463835 0.1900021,-0.662498 l 2.7446905,-4.391506 c 0.3658879,-0.58542 1.1370757,-0.763386 1.7224963,-0.397499 0.1609616,0.100601 0.2968983,0.236538 0.3974995,0.397499 z" /></g></g></g><g
       id="g236"><g
         clip-path="url(#clipPath242)"
         id="g238"><g
           transform="matrix(1.4703326,0,0,1.4703326,108.33333,957.56989)"
           id="g244"><path
             id="path246"
             style="fill:#00c853;fill-opacity:1;fill-rule:nonzero;stroke:none"
             d="m 1199,234 c -10e-5,1.44453 -0.141,2.87518 -0.4228,4.29196 -0.2819,1.41678 -0.6991,2.79247 -1.252,4.12705 -0.5529,1.33458 -1.2306,2.60241 -2.0331,3.80351 -0.8025,1.20109 -1.7145,2.31238 -2.7358,3.33382 -1.0214,1.02143 -2.1327,1.93342 -3.3338,2.73596 -1.201,0.80255 -2.469,1.48022 -3.8035,2.03302 -1.3347,0.55279 -2.7103,0.97011 -4.127,1.25192 -1.4169,0.28181 -2.8475,0.42274 -4.292,0.42276 -1.4446,-2e-5 -2.8752,-0.14095 -4.292,-0.42276 -1.4169,-0.28181 -2.7926,-0.69913 -4.1272,-1.25192 -1.3346,-0.5528 -2.6024,-1.23047 -3.8035,-2.03301 -1.2011,-0.80253 -2.3125,-1.71454 -3.3338,-2.73597 -1.0215,-1.02144 -1.9335,-2.13273 -2.7361,-3.33382 -0.8026,-1.2011 -1.4802,-2.46893 -2.033,-3.80351 -0.5527,-1.33458 -0.9699,-2.71027 -1.2518,-4.12703 -0.2818,-1.4168 -0.4227,-2.84745 -0.4226,-4.29198 -10e-5,-1.44456 0.1408,-2.87523 0.4226,-4.29202 0.2819,-1.4168 0.6991,-2.79248 1.2518,-4.12706 0.5528,-1.3346 1.2304,-2.60243 2.033,-3.80352 0.8026,-1.20108 1.7146,-2.31234 2.7361,-3.33378 1.0213,-1.02144 2.1327,-1.93344 3.3338,-2.73598 1.2011,-0.80253 2.4689,-1.48021 3.8035,-2.033 1.3346,-0.5528 2.7103,-0.97011 4.1272,-1.25193 C 1174.1248,212.1409 1175.5554,212 1177,212 c 1.4445,0 2.8751,0.1409 4.292,0.42271 1.4167,0.28182 2.7923,0.69913 4.127,1.25193 1.3345,0.55279 2.6025,1.23047 3.8035,2.033 1.2011,0.80254 2.3124,1.71454 3.3338,2.73598 1.0213,1.02144 1.9333,2.1327 2.7358,3.33378 0.8025,1.2011 1.4802,2.46894 2.0331,3.80353 0.5529,1.33458 0.9701,2.71025 1.252,4.12705 0.2818,1.41679 0.4227,2.84746 0.4228,4.29202 z" /><path
             id="path248"
             style="fill:#ffffff;fill-opacity:1;fill-rule:nonzero;stroke:none"
             d="m 1168,234 c -10e-5,-0.27617 0.098,-0.51187 0.2927,-0.70714 C 1168.488,233.09763 1168.7238,233 1169,233 h 16 c 0.2761,0 0.5118,0.0976 0.707,0.29286 0.1953,0.19527 0.293,0.43097 0.293,0.70714 0,0.27614 -0.098,0.51183 -0.293,0.70709 C 1185.5118,234.90236 1185.2761,235 1185,235 h -16 c -0.2762,0 -0.512,-0.0976 -0.7073,-0.29291 -0.1952,-0.19526 -0.2928,-0.43095 -0.2927,-0.70709 z" /></g><g
           transform="matrix(0,1.4703326,-1.4703326,0,1840.3853,1288.3948)"
           id="g250"><path
             id="path252"
             style="fill:#ffffff;fill-opacity:1;fill-rule:nonzero;stroke:none"
             d="M 0,1 C 0,0.72385758 0.09763107,0.48815534 0.2928932,0.2928932 0.48815534,0.09763107 0.72385758,0 1,0 h 16 c 0.27614,0 0.511843,0.09763107 0.707106,0.2928932 C 17.902367,0.48815534 17.999998,0.72385758 18,1 17.999998,1.2761424 17.90237,1.5118446 17.707106,1.7071067 17.511843,1.9023688 17.27614,1.9999999 17,2 H 1 C 0.72385758,1.9999999 0.48815534,1.9023688 0.2928932,1.7071067 0.09763107,1.5118446 0,1.2761424 0,1 Z" /></g><g
           transform="matrix(1.4703326,0,0,1.4703326,108.33333,957.56989)"
           id="g254"><text
             id="text258"
             style="font-variant:normal;font-weight:normal;font-size:16px;font-family:Font;-inkscape-font-specification:Font;writing-mode:lr-tb;fill:#191919;fill-opacity:1;fill-rule:nonzero;stroke:none"
             transform="translate(223,352)"><tspan
               id="tspan256"
               y="0"
               x="0 11 15 25 29 36 46 50 59 65 69 83 93 99 106 115 121 131 140">Digitaler Warteraum</tspan></text>
<path
             id="path260"
             style="fill:#e8f5e9;fill-opacity:1;fill-rule:nonzero;stroke:none"
             d="m 223,416 v -36 c -2e-5,-0.53046 0.10149,-1.04071 0.30447,-1.53079 0.20298,-0.49008 0.49201,-0.92264 0.86708,-1.29767 0.37508,-0.37506 0.80764,-0.66409 1.29769,-0.8671 C 225.9593,376.10147 226.46956,376 227,376 h 892 c 0.5304,0 1.0405,0.10147 1.5305,0.30444 0.4901,0.20301 0.9226,0.49204 1.2978,0.8671 0.375,0.37503 0.664,0.80759 0.867,1.29767 0.203,0.49008 0.3046,1.00033 0.3047,1.53079 v 36 c -10e-5,0.53043 -0.1017,1.04065 -0.3047,1.53067 -0.203,0.49005 -0.492,0.92264 -0.867,1.29773 -0.3752,0.37506 -0.8077,0.66409 -1.2978,0.86707 -0.49,0.203 -1.0001,0.3045 -1.5305,0.30453 H 227 c -0.53044,-3e-5 -1.04068,-0.10153 -1.53075,-0.30453 -0.49006,-0.20298 -0.92262,-0.49201 -1.2977,-0.86707 -0.37507,-0.37509 -0.6641,-0.80768 -0.86709,-1.29773 C 223.10147,417.04065 222.99998,416.53043 223,416 Z" /><text
             id="text264"
             style="font-variant:normal;font-weight:normal;font-size:14px;font-family:Font;-inkscape-font-specification:Font;writing-mode:lr-tb;fill:#191919;fill-opacity:1;fill-rule:nonzero;stroke:none"
             transform="translate(238,403)"><tspan
               id="tspan262"
               y="0"
               x="0 8 17 29 37 44 47 54 58 61 71 75 80">James T. Kirk</tspan></text>
<text
             id="text268"
             style="font-variant:normal;font-weight:normal;font-size:14px;font-family:Font;-inkscape-font-specification:Font;writing-mode:lr-tb;fill:#191919;fill-opacity:1;fill-rule:nonzero;stroke:none"
             transform="translate(455.5,403)"><tspan
               id="tspan266"
               y="0"
               x="0 7 16 24 27 32 40 49 52 57 62 70 78 86 94 103">+49 160 11223344</tspan></text>
<text
             id="text272"
             style="font-variant:normal;font-weight:normal;font-size:14px;font-family:Font;-inkscape-font-specification:Font;writing-mode:lr-tb;fill:#191919;fill-opacity:1;fill-rule:nonzero;stroke:none"
             transform="translate(673,403)"><tspan
               id="tspan270"
               y="0"
               x="0 13 22 27 33 41 48 56 60 66 70 73 82 91 95 104">Wartezeit: 00:05</tspan></text>
<text
             id="text276"
             style="font-variant:normal;font-weight:normal;font-size:14px;font-family:Font;-inkscape-font-specification:Font;writing-mode:lr-tb;fill:#191919;fill-opacity:1;fill-rule:nonzero;stroke:none"
             transform="translate(890.5,403)"><tspan
               id="tspan274"
               y="0"
               x="0 10 14 18 21 33 41 52 60">Dr. McCoy</tspan></text>
</g><g
           transform="matrix(1.0396821,1.0396821,-1.0396821,1.0396821,1727.1696,1497.0162)"
           id="g278"><path
             id="path280"
             style="fill:#00c853;fill-opacity:1;fill-rule:nonzero;stroke:none"
             d="m 13,22 c -10e-7,-0.276144 0.09763,-0.511847 0.292892,-0.707108 C 13.488153,21.097631 13.723857,21 14,21 h 16 c 0.27614,0 0.511843,0.09763 0.707106,0.292892 C 30.902367,21.488153 30.999998,21.723856 31,22 c -2e-6,0.276142 -0.09763,0.511845 -0.292894,0.707108 C 30.511843,22.902369 30.27614,23 30,23 H 14 C 13.723857,23 13.488153,22.902369 13.292892,22.707108 13.09763,22.511845 12.999999,22.276142 13,22 Z" /></g><g
           transform="matrix(-1.0396821,1.0396821,-1.0396821,-1.0396821,1737.5664,1534.4448)"
           id="g282"><path
             id="path284"
             style="fill:#00c853;fill-opacity:1;fill-rule:nonzero;stroke:none"
             d="M 0,1 C 0,0.72385758 0.09763107,0.48815534 0.2928932,0.2928932 0.48815534,0.09763107 0.72385758,0 1,0 h 16 c 0.27614,0 0.511843,0.09763107 0.707106,0.2928932 C 17.902367,0.48815534 17.999998,0.72385758 18,1 17.999998,1.2761424 17.90237,1.5118446 17.707106,1.7071067 17.511843,1.9023688 17.27614,1.9999999 17,2 H 1 C 0.72385758,1.9999999 0.48815534,1.9023688 0.2928932,1.7071067 0.09763107,1.5118446 0,1.2761424 0,1 Z" /></g><g
           transform="matrix(1.4703326,0,0,1.4703326,108.33333,957.56989)"
           id="g286"><path
             id="path288"
             style="fill:#e8f5e9;fill-opacity:1;fill-rule:nonzero;stroke:none"
             d="m 1149,398 c 0,-1.44455 0.1409,-2.87521 0.4226,-4.29199 0.2819,-1.41681 0.6991,-2.79251 1.2518,-4.12708 0.5528,-1.33456 1.2305,-2.60241 2.0331,-3.80353 0.8026,-1.20108 1.7146,-2.31234 2.7361,-3.3338 1.0214,-1.02145 2.1327,-1.93344 3.3337,-2.73599 1.2011,-0.80255 2.4689,-1.48022 3.8035,-2.03299 1.3346,-0.55279 2.7103,-0.97009 4.1272,-1.25192 1.4168,-0.2818 2.8474,-0.4227 4.292,-0.4227 h 111 c 1.4445,0 2.8751,0.1409 4.2919,0.4227 1.4168,0.28183 2.7924,0.69913 4.1269,1.25192 1.3346,0.55277 2.6024,1.23044 3.8036,2.03299 1.2011,0.80255 2.3123,1.71454 3.3338,2.73599 1.0213,1.02146 1.9333,2.13275 2.7359,3.33384 0.8025,1.20108 1.4802,2.46893 2.0331,3.80349 0.5529,1.33457 0.9701,2.71027 1.252,4.12708 0.2818,1.41678 0.4227,2.84744 0.4228,4.29199 -10e-5,1.44452 -0.141,2.87515 -0.4228,4.29193 -0.2819,1.41678 -0.6991,2.79248 -1.252,4.12705 -0.5529,1.33456 -1.2306,2.60241 -2.0331,3.80355 -0.8026,1.20108 -1.7146,2.31235 -2.7359,3.33381 -1.0215,1.02142 -2.1327,1.93341 -3.3338,2.73593 -1.2012,0.80252 -2.469,1.48019 -3.8036,2.03302 -1.3345,0.55282 -2.7101,0.97015 -4.1269,1.25198 C 1284.8751,419.8591 1283.4445,420 1282,420 h -111 c -1.4446,0 -2.8752,-0.1409 -4.292,-0.42273 -1.4169,-0.28183 -2.7926,-0.69916 -4.1272,-1.25192 -1.3346,-0.55283 -2.6024,-1.2305 -3.8035,-2.03305 -1.201,-0.80255 -2.3123,-1.71454 -3.3337,-2.73596 -1.0215,-1.02146 -1.9335,-2.13273 -2.7361,-3.33381 -0.8026,-1.20114 -1.4803,-2.46899 -2.0331,-3.80355 -0.5527,-1.33457 -0.9699,-2.71027 -1.2518,-4.12705 C 1149.1409,400.87515 1149,399.44452 1149,398 Z" /><text
             id="text292"
             style="font-variant:normal;font-weight:normal;font-size:14px;font-family:Font;-inkscape-font-specification:Font;writing-mode:lr-tb;fill:#00c853;fill-opacity:1;fill-rule:nonzero;stroke:none"
             transform="translate(1174,403)"><tspan
               id="tspan290"
               y="0"
               x="0 8 20 28 31 39 50 61 65 76 86 94">SMS SCHICKEN</tspan></text>
<text
             id="text296"
             style="font-variant:normal;font-weight:normal;font-size:16px;font-family:Font;-inkscape-font-specification:Font;writing-mode:lr-tb;fill:#191919;fill-opacity:1;fill-rule:nonzero;stroke:none"
             transform="translate(223,556)"><tspan
               id="tspan294"
               y="0"
               x="0 12 18 26 33 42 46 56 60 70 78 87 94 103 113 122">Ärzte hinzufügen</tspan></text>
<path
             id="path298"
             style="fill:#e8f5e9;fill-opacity:1;fill-rule:nonzero;stroke:none"
             d="m 223,620 v -36 c -2e-5,-0.53046 0.10149,-1.04071 0.30447,-1.53076 0.20298,-0.49005 0.49201,-0.92261 0.86708,-1.29767 0.37508,-0.37506 0.80764,-0.66412 1.29769,-0.86713 C 225.9593,580.1015 226.46956,580 227,580 h 192 c 0.53043,0 1.04065,0.1015 1.53073,0.30444 0.49005,0.20301 0.92261,0.49207 1.2977,0.86713 0.37506,0.37506 0.66409,0.80762 0.86707,1.29767 0.20297,0.49005 0.30447,1.0003 0.3045,1.53076 v 36 c -3e-5,0.53033 -0.10153,1.04059 -0.30453,1.5307 -0.20298,0.48999 -0.49198,0.92255 -0.86704,1.29767 -0.37509,0.37506 -0.80765,0.66406 -1.2977,0.86706 C 420.04065,623.89838 419.53043,623.99994 419,624 H 227 c -0.53044,-6e-5 -1.04068,-0.10162 -1.53075,-0.30457 -0.49006,-0.203 -0.92262,-0.492 -1.2977,-0.86706 -0.37507,-0.37512 -0.6641,-0.80768 -0.86709,-1.29767 C 223.10147,621.04059 222.99998,620.53033 223,620 Z" /></g></g></g><g
       id="g300"><g
         clip-path="url(#clipPath306)"
         id="g302"><g
           clip-path="url(#clipPath312)"
           id="g308"><g
             clip-path="url(#clipPath318)"
             id="g314"><g
               clip-path="url(#clipPath324)"
               id="g320"><g
                 clip-path="url(#clipPath330)"
                 id="g326"><g
                   transform="matrix(1.4703326,0,0,1.4703326,108.33333,957.56989)"
                   id="g332"><text
                     id="text336"
                     style="font-variant:normal;font-weight:normal;font-size:14px;font-family:Font;-inkscape-font-specification:Font;writing-mode:lr-tb;fill:#191919;fill-opacity:1;fill-rule:nonzero;stroke:none"
                     transform="translate(238,607)"><tspan
                       id="tspan334"
                       y="0"
                       x="0 10 14">Dr.</tspan></text>
</g></g></g></g></g></g></g><g
       id="g338"><g
         clip-path="url(#clipPath344)"
         id="g340"><g
           transform="matrix(1.633703,0,0,1.633703,699.32538,1826.3732)"
           id="g346"><path
             id="path348"
             style="fill:#00c853;fill-opacity:1;fill-rule:evenodd;stroke:none"
             d="M 6.059998,1.6959966 8.8046885,6.0875015 C 9.1705761,6.6729221 8.99261,7.4441099 8.4071894,7.8099976 8.2085247,7.9341631 7.9789653,8 7.7446904,8 H 2.2553096 c -0.690356,0 -1.25,-0.5596442 -1.25,-1.25 0,-0.2342749 0.065837,-0.4638343 0.1900021,-0.6624985 L 3.9400022,1.6959966 C 4.3058901,1.1105759 5.0770779,0.9326095 5.6624985,1.2984974 5.8234601,1.3990983 5.9593968,1.5350351 6.059998,1.6959966 Z" /></g><g
           transform="matrix(1.633703,0,0,-1.633703,699.32538,1878.6516)"
           id="g350"><path
             id="path352"
             style="fill:#00c853;fill-opacity:1;fill-rule:evenodd;stroke:none"
             d="m 6.059998,13.695996 2.7446905,4.391506 C 9.1705761,18.672922 8.99261,19.444111 8.4071894,19.809998 8.2085247,19.934164 7.9789653,20 7.7446904,20 H 2.2553096 c -0.690356,0 -1.25,-0.559645 -1.25,-1.25 0,-0.234274 0.065837,-0.463835 0.1900021,-0.662498 l 2.7446905,-4.391506 c 0.3658879,-0.58542 1.1370757,-0.763386 1.7224963,-0.397499 0.1609616,0.100601 0.2968983,0.236538 0.3974995,0.397499 z" /></g></g></g><g
       id="g354"><g
         clip-path="url(#clipPath360)"
         id="g356"><g
           transform="matrix(1.4703326,0,0,1.4703326,108.33333,957.56989)"
           id="g362"><path
             id="path364"
             style="fill:#e8f5e9;fill-opacity:1;fill-rule:nonzero;stroke:none"
             d="m 457,620 v -36 c -3e-5,-0.53046 0.10147,-1.04071 0.30444,-1.53076 0.20298,-0.49005 0.49204,-0.92261 0.86713,-1.29767 0.37506,-0.37506 0.80762,-0.66412 1.29764,-0.86713 C 459.95929,580.1015 460.46954,580 461,580 h 192 c 0.53033,0 1.04059,0.1015 1.5307,0.30444 0.48999,0.20301 0.92255,0.49207 1.29767,0.86713 0.37506,0.37506 0.66406,0.80762 0.86713,1.29767 0.20294,0.49005 0.30444,1.0003 0.3045,1.53076 v 36 c -6e-5,0.53033 -0.10156,1.04059 -0.3045,1.5307 -0.20307,0.48999 -0.49207,0.92255 -0.86713,1.29767 -0.37512,0.37506 -0.80768,0.66406 -1.29767,0.86706 C 654.04059,623.89838 653.53033,623.99994 653,624 H 461 c -0.53046,-6e-5 -1.04071,-0.10162 -1.53079,-0.30457 -0.49002,-0.203 -0.92258,-0.492 -1.29764,-0.86706 -0.37509,-0.37512 -0.66415,-0.80768 -0.86713,-1.29767 C 457.10147,621.04059 456.99997,620.53033 457,620 Z" /></g></g></g><g
       id="g366"><g
         clip-path="url(#clipPath372)"
         id="g368"><g
           clip-path="url(#clipPath378)"
           id="g374"><g
             clip-path="url(#clipPath384)"
             id="g380"><g
               clip-path="url(#clipPath390)"
               id="g386"><g
                 transform="matrix(1.4703326,0,0,1.4703326,108.33333,957.56989)"
                 id="g392"><text
                   id="text396"
                   style="font-variant:normal;font-weight:normal;font-size:14px;font-family:Font;-inkscape-font-specification:Font;writing-mode:lr-tb;fill:#959d95;fill-opacity:1;fill-rule:nonzero;stroke:none"
                   transform="translate(472,607)"><tspan
                     id="tspan394"
                     y="0"
                     x="0 9 17 22 30 39 51">Vorname</tspan></text>
</g></g></g></g></g></g><g
       id="g398"><g
         clip-path="url(#clipPath404)"
         id="g400"><g
           transform="matrix(1.4703326,0,0,1.4703326,108.33333,957.56989)"
           id="g406"><path
             id="path408"
             style="fill:#e8f5e9;fill-opacity:1;fill-rule:nonzero;stroke:none"
             d="m 691,620 v -36 c -6e-5,-0.53046 0.10144,-1.04071 0.30444,-1.53076 0.20295,-0.49005 0.49201,-0.92261 0.86713,-1.29767 0.375,-0.37506 0.80756,-0.66412 1.29767,-0.86713 C 693.95929,580.1015 694.46954,580 695,580 h 192 c 0.53033,0 1.04059,0.1015 1.53064,0.30444 0.49005,0.20301 0.92261,0.49207 1.29773,0.86713 0.37506,0.37506 0.66406,0.80762 0.86706,1.29767 0.20301,0.49005 0.30451,1.0003 0.30457,1.53076 v 36 c -6e-5,0.53033 -0.10156,1.04059 -0.30457,1.5307 -0.203,0.48999 -0.492,0.92255 -0.86706,1.29767 -0.37512,0.37506 -0.80768,0.66406 -1.29773,0.86706 C 888.04059,623.89838 887.53033,623.99994 887,624 H 695 c -0.53046,-6e-5 -1.04071,-0.10162 -1.53076,-0.30457 -0.49011,-0.203 -0.92267,-0.492 -1.29767,-0.86706 -0.37512,-0.37512 -0.66418,-0.80768 -0.86713,-1.29767 -0.203,-0.49011 -0.3045,-1.00037 -0.30444,-1.5307 z" /></g></g></g><g
       id="g410"><g
         clip-path="url(#clipPath416)"
         id="g412"><g
           clip-path="url(#clipPath422)"
           id="g418"><g
             clip-path="url(#clipPath428)"
             id="g424"><g
               clip-path="url(#clipPath434)"
               id="g430"><g
                 transform="matrix(1.4703326,0,0,1.4703326,108.33333,957.56989)"
                 id="g436"><text
                   id="text440"
                   style="font-variant:normal;font-weight:normal;font-size:14px;font-family:Font;-inkscape-font-specification:Font;writing-mode:lr-tb;fill:#959d95;fill-opacity:1;fill-rule:nonzero;stroke:none"
                   transform="translate(706,607)"><tspan
                     id="tspan438"
                     y="0"
                     x="0 11 20 32">Name</tspan></text>
</g></g></g></g></g></g><g
       id="g442"><g
         clip-path="url(#clipPath448)"
         id="g444"><g
           transform="matrix(1.4703326,0,0,1.4703326,108.33333,957.56989)"
           id="g450"><path
             id="path452"
             style="fill:#e8f5e9;fill-opacity:1;fill-rule:nonzero;stroke:none"
             d="m 965,602 c -6e-5,1.44452 -0.14099,2.87512 -0.42279,4.29187 -0.28186,1.41681 -0.69922,2.79248 -1.25201,4.12708 -0.5528,1.33459 -1.23047,2.60241 -2.03296,3.80352 -0.80255,1.20105 -1.71454,2.31232 -2.73597,3.3338 -1.02148,1.02143 -2.13275,1.93342 -3.33386,2.73597 -1.20111,0.80255 -2.46893,1.48022 -3.80353,2.03302 -1.33453,0.55279 -2.7102,0.97009 -4.12701,1.25189 -1.41675,0.28186 -2.84735,0.42279 -4.29187,0.42285 -1.44458,-6e-5 -2.87524,-0.14099 -4.29205,-0.42285 -1.41681,-0.2818 -2.79248,-0.6991 -4.12708,-1.25189 -1.33459,-0.5528 -2.60242,-1.23047 -3.80353,-2.03302 -1.20111,-0.80255 -2.31231,-1.71454 -3.33374,-2.73597 -1.02142,-1.02148 -1.93347,-2.13275 -2.73608,-3.3338 -0.80255,-1.20111 -1.48023,-2.46893 -2.03302,-3.80352 -0.55273,-1.3346 -0.97003,-2.71027 -1.25183,-4.12708 C 921.14087,604.87512 921,603.44452 921,602 c 0,-1.44458 0.14087,-2.87524 0.42267,-4.29205 0.2818,-1.41675 0.6991,-2.79242 1.25189,-4.12702 0.5528,-1.33465 1.23047,-2.60248 2.03296,-3.80353 0.80261,-1.20111 1.71466,-2.31237 2.73608,-3.3338 1.02143,-1.02142 2.13269,-1.93347 3.3338,-2.73602 1.20105,-0.80255 2.46888,-1.48016 3.80353,-2.03296 1.33454,-0.55279 2.71021,-0.97015 4.12702,-1.25195 C 940.12476,580.14087 941.55542,580 943,580 c 1.44452,0 2.87512,0.14087 4.29187,0.42267 1.41681,0.2818 2.79248,0.69916 4.12701,1.25195 1.3346,0.5528 2.60242,1.23041 3.80353,2.03296 1.20111,0.80255 2.31238,1.7146 3.33386,2.73602 1.02143,1.02143 1.93342,2.13269 2.73597,3.3338 0.80249,1.20105 1.48016,2.46888 2.03296,3.80353 0.55279,1.3346 0.97015,2.71027 1.25201,4.12702 0.2818,1.41681 0.42273,2.84747 0.42279,4.29205 z" /><path
             id="path454"
             style="fill:#00c853;fill-opacity:1;fill-rule:nonzero;stroke:none"
             d="m 934,602 c -6e-5,-0.27618 0.0976,-0.5119 0.29285,-0.70715 C 934.4881,601.0976 934.72382,601 935,601 h 16 c 0.27606,0 0.51178,0.0976 0.70703,0.29285 0.19525,0.19525 0.29291,0.43097 0.29297,0.70715 -6e-5,0.27612 -0.0977,0.51184 -0.29297,0.70709 C 951.51178,602.90234 951.27606,602.99994 951,603 h -16 c -0.27618,-6e-5 -0.5119,-0.0977 -0.70715,-0.29291 C 934.0976,602.51184 933.99994,602.27612 934,602 Z" /></g><g
           transform="matrix(0,1.4703326,-1.4703326,0,1496.3274,1829.4771)"
           id="g456"><path
             id="path458"
             style="fill:#00c853;fill-opacity:1;fill-rule:nonzero;stroke:none"
             d="M 0,1 C 0,0.72385758 0.09763107,0.48815534 0.2928932,0.2928932 0.48815534,0.09763107 0.72385758,0 1,0 h 16 c 0.27614,0 0.511843,0.09763107 0.707106,0.2928932 C 17.902367,0.48815534 17.999998,0.72385758 18,1 17.999998,1.2761424 17.90237,1.5118446 17.707106,1.7071067 17.511843,1.9023688 17.27614,1.9999999 17,2 H 1 C 0.72385758,1.9999999 0.48815534,1.9023688 0.2928932,1.7071067 0.09763107,1.5118446 0,1.2761424 0,1 Z" /></g><g
           transform="matrix(1.4703326,0,0,1.4703326,108.33333,957.56989)"
           id="g460"><text
             id="text464"
             style="font-variant:normal;font-weight:normal;font-size:16px;font-family:Font;-inkscape-font-specification:Font;writing-mode:lr-tb;fill:#191919;fill-opacity:1;fill-rule:nonzero;stroke:none"
             transform="translate(223,720)"><tspan
               id="tspan462"
               y="0"
               x="0 12 18 26 33 42 46 50 58 65">Ärzteliste</tspan></text>
<path
             id="path466"
             style="fill:#e8f5e9;fill-opacity:1;fill-rule:nonzero;stroke:none"
             d="m 223,784 v -36 c -2e-5,-0.53046 0.10149,-1.04077 0.30447,-1.53082 0.20298,-0.49005 0.49201,-0.92261 0.86708,-1.29767 0.37508,-0.37512 0.80764,-0.66419 1.29769,-0.86713 C 225.9593,744.10144 226.46956,744 227,744 h 632 c 0.5304,0 1.04065,0.10144 1.5307,0.30438 0.49005,0.20294 0.92261,0.49201 1.29767,0.86713 0.37506,0.37506 0.66406,0.80762 0.867,1.29767 0.20301,0.49005 0.30457,1.00036 0.30463,1.53082 v 36 c -6e-5,0.5304 -0.10162,1.04059 -0.30463,1.53064 -0.20294,0.49005 -0.49194,0.92267 -0.867,1.29779 -0.37506,0.375 -0.80768,0.664 -1.29773,0.867 C 860.04059,787.89844 859.5304,787.99994 859,788 H 227 c -0.53044,-6e-5 -1.04068,-0.10156 -1.53075,-0.30457 -0.49006,-0.203 -0.92262,-0.492 -1.2977,-0.867 -0.37507,-0.37512 -0.6641,-0.80774 -0.86709,-1.29779 C 223.10147,785.04059 222.99998,784.5304 223,784 Z" /><text
             id="text470"
             style="font-variant:normal;font-weight:normal;font-size:14px;font-family:Font;-inkscape-font-specification:Font;writing-mode:lr-tb;fill:#191919;fill-opacity:1;fill-rule:nonzero;stroke:none"
             transform="translate(238,771)"><tspan
               id="tspan468"
               y="0"
               x="0 10 14 18 21 33 41 52 60">Dr. McCoy</tspan></text>
</g><g
           transform="matrix(1.0396821,1.0396821,-1.0396821,1.0396821,1344.8831,2038.0986)"
           id="g472"><path
             id="path474"
             style="fill:#00c853;fill-opacity:1;fill-rule:nonzero;stroke:none"
             d="m 13,22 c -10e-7,-0.276144 0.09763,-0.511847 0.292892,-0.707108 C 13.488153,21.097631 13.723857,21 14,21 h 16 c 0.27614,0 0.511843,0.09763 0.707106,0.292892 C 30.902367,21.488153 30.999998,21.723856 31,22 c -2e-6,0.276142 -0.09763,0.511845 -0.292894,0.707108 C 30.511843,22.902369 30.27614,23 30,23 H 14 C 13.723857,23 13.488153,22.902369 13.292892,22.707108 13.09763,22.511845 12.999999,22.276142 13,22 Z" /></g><g
           transform="matrix(-1.0396821,1.0396821,-1.0396821,-1.0396821,1355.2799,2075.5271)"
           id="g476"><path
             id="path478"
             style="fill:#00c853;fill-opacity:1;fill-rule:nonzero;stroke:none"
             d="M 0,1 C 0,0.72385758 0.09763107,0.48815534 0.2928932,0.2928932 0.48815534,0.09763107 0.72385758,0 1,0 h 16 c 0.27614,0 0.511843,0.09763107 0.707106,0.2928932 C 17.902367,0.48815534 17.999998,0.72385758 18,1 17.999998,1.2761424 17.90237,1.5118446 17.707106,1.7071067 17.511843,1.9023688 17.27614,1.9999999 17,2 H 1 C 0.72385758,1.9999999 0.48815534,1.9023688 0.2928932,1.7071067 0.09763107,1.5118446 0,1.2761424 0,1 Z" /></g><g
           transform="matrix(1.4703326,0,0,1.4703326,108.33333,957.56989)"
           id="g480"><path
             id="path482"
             style="fill:#e8f5e9;fill-opacity:1;fill-rule:nonzero;stroke:none"
             d="m 223,848 v -36 c -2e-5,-0.53046 0.10149,-1.04077 0.30447,-1.53088 0.20298,-0.49006 0.49201,-0.92255 0.86708,-1.29761 0.37508,-0.37506 0.80764,-0.66412 1.29769,-0.86713 C 225.9593,808.10144 226.46956,808 227,808 h 632 c 0.5304,0 1.04065,0.10144 1.5307,0.30432 0.49005,0.20307 0.92261,0.49213 1.29767,0.86719 0.37506,0.37506 0.66406,0.80755 0.867,1.29761 0.20301,0.49011 0.30457,1.00042 0.30463,1.53088 v 36 c -6e-5,0.53033 -0.10162,1.04053 -0.30463,1.53058 -0.20294,0.49005 -0.49194,0.92267 -0.867,1.29779 -0.37506,0.375 -0.80768,0.664 -1.29773,0.86706 C 860.04059,851.89838 859.5304,851.99994 859,852 H 227 c -0.53044,-6e-5 -1.04068,-0.10162 -1.53075,-0.30463 -0.49006,-0.203 -0.92262,-0.492 -1.2977,-0.867 -0.37507,-0.37512 -0.6641,-0.80768 -0.86709,-1.29773 C 223.10147,849.04059 222.99998,848.53033 223,848 Z" /><text
             id="text486"
             style="font-variant:normal;font-weight:normal;font-size:14px;font-family:Font;-inkscape-font-specification:Font;writing-mode:lr-tb;fill:#191919;fill-opacity:1;fill-rule:nonzero;stroke:none"
             transform="translate(238,835)"><tspan
               id="tspan484"
               y="0"
               x="0 10 14 18 21 32 37 45 52 60 68">Dr. Crusher</tspan></text>
</g><g
           transform="matrix(1.0396821,1.0396821,-1.0396821,1.0396821,1344.8831,2132.2)"
           id="g488"><path
             id="path490"
             style="fill:#00c853;fill-opacity:1;fill-rule:nonzero;stroke:none"
             d="m 13,22 c -10e-7,-0.276144 0.09763,-0.511847 0.292892,-0.707108 C 13.488153,21.097631 13.723857,21 14,21 h 16 c 0.27614,0 0.511843,0.09763 0.707106,0.292892 C 30.902367,21.488153 30.999998,21.723856 31,22 c -2e-6,0.276142 -0.09763,0.511845 -0.292894,0.707108 C 30.511843,22.902369 30.27614,23 30,23 H 14 C 13.723857,23 13.488153,22.902369 13.292892,22.707108 13.09763,22.511845 12.999999,22.276142 13,22 Z" /></g><g
           transform="matrix(-1.0396821,1.0396821,-1.0396821,-1.0396821,1355.2799,2169.6284)"
           id="g492"><path
             id="path494"
             style="fill:#00c853;fill-opacity:1;fill-rule:nonzero;stroke:none"
             d="M 0,1 C 0,0.72385758 0.09763107,0.48815534 0.2928932,0.2928932 0.48815534,0.09763107 0.72385758,0 1,0 h 16 c 0.27614,0 0.511843,0.09763107 0.707106,0.2928932 C 17.902367,0.48815534 17.999998,0.72385758 18,1 17.999998,1.2761424 17.90237,1.5118446 17.707106,1.7071067 17.511843,1.9023688 17.27614,1.9999999 17,2 H 1 C 0.72385758,1.9999999 0.48815534,1.9023688 0.2928932,1.7071067 0.09763107,1.5118446 0,1.2761424 0,1 Z" /></g><g
           transform="matrix(1.4703326,0,0,1.4703326,108.33333,957.56989)"
           id="g496"><text
             id="text500"
             style="font-variant:normal;font-weight:normal;font-size:14px;font-family:Font;-inkscape-font-specification:Font;writing-mode:lr-tb;fill:#000000;fill-opacity:1;fill-rule:nonzero;stroke:none"
             transform="translate(223,976)"><tspan
               id="tspan498"
               y="0"
               x="0 11 15 23 28 31 39 48 56 64 71 77 80 89 97 100 109 117 121 129 137 145 148 161 170 175 181 189 194 203 211 223 226 234 242 251 254 263 267 271 279 282 291 299 306 315 323 327 335 343 351 356 362 370 378 381 391 400 406 414 422 425 429 437 444 452 460 468 476">Hier kannst du deinen Warteraum und alle gespeicherten Daten löschen.</tspan></text>
<path
             id="path502"
             style="fill:#e64a19;fill-opacity:1;fill-rule:nonzero;stroke:none"
             d="m 223,1011 h 124 v 1 H 223 Z" /><text
             id="text506"
             style="font-variant:normal;font-weight:normal;font-size:14px;font-family:Font;-inkscape-font-specification:Font;writing-mode:lr-tb;fill:#e64a19;fill-opacity:1;fill-rule:nonzero;stroke:none"
             transform="translate(223,1010)"><tspan
               id="tspan504"
               y="0"
               x="0 10 14 18 26 29 39 48 54 62 70 73 77 85 92 100 108 116">Alle Daten löschen</tspan></text>
<text
             id="text510"
             style="font-variant:normal;font-weight:normal;font-size:16px;font-family:Font;-inkscape-font-specification:Font;writing-mode:lr-tb;fill:#191919;fill-opacity:1;fill-rule:nonzero;stroke:none"
             transform="translate(223,938)"><tspan
               id="tspan508"
               y="0"
               x="0 11 21 28 37 47 51 55 64 72 81 91 100">Daten löschen</tspan></text>
</g></g></g></g></svg>